<svg width="255" height="68" fill="none" xmlns="http://www.w3.org/2000/svg"><path d="M138.997 22.944c-.633 0-1.159-.21-1.576-.626-.417-.425-.618-.943-.618-1.568 0-.626.201-1.151.618-1.569.417-.417.943-.625 1.576-.625.379 0 .734.085 1.058.27.325.178.58.417.765.726l-.935.533a.852.852 0 00-.355-.347 1.05 1.05 0 00-.533-.132c-.34 0-.61.1-.819.317-.201.209-.309.487-.309.827 0 .34.108.618.309.826.209.209.479.317.819.317.193 0 .371-.046.533-.131a.87.87 0 00.355-.356l.935.541a1.97 1.97 0 01-.765.726c-.324.178-.672.27-1.058.27zm13.774-.634c-.425.417-.95.634-1.568.634a2.147 2.147 0 01-1.561-.634c-.432-.425-.641-.942-.641-1.56 0-.618.209-1.136.641-1.56.425-.426.943-.634 1.561-.634s1.143.208 1.568.633c.425.425.641.943.641 1.56a2.12 2.12 0 01-.641 1.561zm-2.379-.741a1.1 1.1 0 00.811.324 1.107 1.107 0 001.135-1.143c0-.333-.108-.61-.324-.82a1.1 1.1 0 00-.811-.324c-.325 0-.595.108-.811.325-.217.208-.325.486-.325.819 0 .332.108.602.325.819zm15.867-2.928v4.21h-1.066v-2.264l-1.028 1.684h-.108l-1.012-1.676v2.256h-1.081v-4.21h1.081l1.066 1.8 1.082-1.8h1.066zm10.359 0a1.5 1.5 0 011.074.417c.286.278.433.633.433 1.058 0 .433-.147.78-.433 1.058a1.5 1.5 0 01-1.074.418h-.556v1.259h-1.081v-4.21h1.637zm0 1.923a.387.387 0 00.302-.123.436.436 0 00.123-.325.436.436 0 00-.123-.324.415.415 0 00-.302-.124h-.556v.896h.556zm12.214 2.287l-.209-.603h-1.429l-.178.603h-1.166l1.336-4.21h1.36l1.39 4.21h-1.104zm-1.36-1.53h.85l-.433-1.437-.417 1.437zm13.148-2.68h1.066v4.21h-.826l-1.484-2.117v2.117h-1.073v-4.21h.834l1.483 2.116v-2.116zm13.38 0l-1.421 2.595v1.615h-1.074v-1.607l-1.422-2.603h1.205l.75 1.56.749-1.56H214z" fill="#2B2A28"/><path fill-rule="evenodd" clip-rule="evenodd" d="M160.651.046l11.634 13.017h-4.412L156.24.046h4.411zm12.97 0l11.634 13.017h-4.403L169.218.046h4.403zm13.009 0l11.634 13.017h-4.411L182.219.046h4.411z" fill="#CB8734"/><path fill-rule="evenodd" clip-rule="evenodd" d="M206.816 8.613l3.97 4.45h-3.545l-3.979-4.45-2.866-3.16h8.907a1.16 1.16 0 001.159-1.15c0-.626-.525-1.151-1.159-1.151h-10.715L195.429 0h13.874c2.372 0 4.311 1.939 4.311 4.303a4.322 4.322 0 01-4.311 4.31h-2.487zM40 .046h21.028v3.152H52.09v9.865h-3.152V3.198H40V.046zm37.073 0h10.212c3.392 0 6.165 2.774 6.165 6.157V6.9c0 3.39-2.773 6.164-6.165 6.164H77.073c-3.392 0-6.165-2.773-6.165-6.164v-.696c0-3.383 2.773-6.157 6.165-6.157zm0 3.152h10.212a3.013 3.013 0 013.005 3.005V6.9a3.013 3.013 0 01-3.005 3.005H77.073A3.013 3.013 0 0174.068 6.9v-.696a3.013 3.013 0 013.005-3.005zM108.437.046v6.992l.061-.07L119.321.046h5.647l-8.698 5.431 10.776 7.586h-5.708l-8.127-5.678-4.774 2.982v2.696h-3.16V.047h3.16zm38.741.024l11.897 12.993h-14.786l3.152-3.16h4.465l-4.697-5.137-7.578 8.297h-4.079L147.178.07z" fill="#2B2A28"/><path d="M21.507 35.6v1.32h-2.364V44h-1.38v-7.08h-2.376V35.6h6.12zm3.65 8.556c-.88 0-1.627-.304-2.243-.912-.616-.608-.924-1.356-.924-2.244 0-.888.308-1.636.924-2.244.616-.608 1.364-.912 2.244-.912.888 0 1.636.304 2.244.912.616.608.924 1.356.924 2.244 0 .888-.308 1.636-.924 2.244-.608.608-1.356.912-2.244.912zm-1.331-1.8c.36.36.804.54 1.332.54s.972-.18 1.332-.54c.36-.36.54-.812.54-1.356s-.18-.996-.54-1.356a1.81 1.81 0 00-1.332-.54c-.528 0-.972.18-1.332.54-.36.36-.54.812-.54 1.356s.18.996.54 1.356zM35.762 44h-1.548l-2.46-2.772V44h-1.296v-8.4h1.296v5.052L34.082 38h1.584l-2.64 2.94L35.762 44zm6.103-6h1.296v6h-1.296v-.864c-.488.68-1.188 1.02-2.1 1.02-.824 0-1.528-.304-2.112-.912-.584-.616-.876-1.364-.876-2.244 0-.888.292-1.636.876-2.244.584-.608 1.288-.912 2.112-.912.912 0 1.612.336 2.1 1.008V38zm-3.252 4.38c.36.36.812.54 1.356.54s.996-.18 1.356-.54c.36-.368.54-.828.54-1.38 0-.552-.18-1.008-.54-1.368-.36-.368-.812-.552-1.356-.552s-.996.184-1.356.552c-.36.36-.54.816-.54 1.368 0 .552.18 1.012.54 1.38zm8.315-3.372c.328-.744.944-1.116 1.848-1.116v1.404c-.497-.032-.929.088-1.297.36-.367.264-.551.704-.551 1.32V44h-1.296v-6h1.296v1.008zm7.821 5.148c-1.264 0-2.312-.416-3.144-1.248-.832-.84-1.248-1.876-1.248-3.108 0-1.232.416-2.264 1.248-3.096.832-.84 1.88-1.26 3.144-1.26.76 0 1.46.18 2.1.54.648.36 1.152.848 1.512 1.464l-1.2.696a2.428 2.428 0 00-.984-.984 2.776 2.776 0 00-1.428-.372c-.896 0-1.624.284-2.184.852-.552.568-.828 1.288-.828 2.16 0 .872.276 1.592.828 2.16.56.568 1.288.852 2.184.852.528 0 1.008-.12 1.44-.36.432-.248.756-.58.972-.996l1.2.684a3.912 3.912 0 01-1.5 1.476c-.64.36-1.344.54-2.112.54zm8.455 0c-.88 0-1.628-.304-2.244-.912-.616-.608-.924-1.356-.924-2.244 0-.888.308-1.636.924-2.244.616-.608 1.364-.912 2.244-.912.888 0 1.636.304 2.244.912.616.608.924 1.356.924 2.244 0 .888-.308 1.636-.924 2.244-.608.608-1.356.912-2.244.912zm-1.332-1.8c.36.36.804.54 1.332.54s.972-.18 1.332-.54c.36-.36.54-.812.54-1.356s-.18-.996-.54-1.356a1.81 1.81 0 00-1.332-.54c-.528 0-.972.18-1.332.54-.36.36-.54.812-.54 1.356s.18.996.54 1.356zm13.184-4.512c.68 0 1.228.22 1.644.66.416.44.624 1.032.624 1.776V44h-1.296v-3.636c0-.416-.104-.736-.312-.96-.208-.232-.492-.348-.852-.348-.4 0-.72.132-.96.396-.232.264-.348.66-.348 1.188V44H72.26v-3.636c0-.416-.1-.736-.3-.96-.192-.232-.468-.348-.828-.348-.392 0-.712.136-.96.408-.248.264-.372.656-.372 1.176V44h-1.296v-6H69.8v.72c.384-.584.956-.876 1.716-.876.768 0 1.336.316 1.704.948.4-.632 1.012-.948 1.836-.948zm8.01 0c.825 0 1.529.308 2.113.924.584.608.876 1.352.876 2.232 0 .888-.292 1.636-.876 2.244-.584.608-1.288.912-2.112.912-.912 0-1.612-.336-2.1-1.008V46.4H79.67V38h1.296v.864c.488-.68 1.188-1.02 2.1-1.02zm-1.56 4.536c.36.36.813.54 1.357.54s.996-.18 1.356-.54c.36-.368.54-.828.54-1.38 0-.552-.18-1.008-.54-1.368-.36-.368-.812-.552-1.356-.552s-.996.184-1.356.552c-.36.36-.54.816-.54 1.368 0 .552.18 1.012.54 1.38zM92.942 38h1.296v6h-1.296v-.864c-.488.68-1.188 1.02-2.1 1.02-.824 0-1.528-.304-2.112-.912-.584-.616-.876-1.364-.876-2.244 0-.888.292-1.636.876-2.244.584-.608 1.288-.912 2.112-.912.912 0 1.612.336 2.1 1.008V38zm-3.252 4.38c.36.36.812.54 1.356.54s.996-.18 1.356-.54c.36-.368.54-.828.54-1.38 0-.552-.18-1.008-.54-1.368-.36-.368-.812-.552-1.356-.552s-.996.184-1.356.552c-.36.36-.54.816-.54 1.368 0 .552.18 1.012.54 1.38zm10.175-4.536c.688 0 1.244.22 1.668.66.424.44.636 1.044.636 1.812V44h-1.296v-3.552c0-.448-.12-.792-.36-1.032s-.568-.36-.984-.36c-.456 0-.824.144-1.104.432-.28.28-.42.712-.42 1.296V44h-1.296v-6h1.296v.768c.392-.616 1.012-.924 1.86-.924zm8.586.156h1.38l-2.304 6.192c-.576 1.552-1.552 2.288-2.928 2.208v-1.212c.408.024.736-.064.984-.264.248-.192.452-.496.612-.912l.06-.12L103.71 38h1.416l1.788 4.356L108.45 38zm7.195 2.976v-1.248h4.44v1.248h-4.44zM131.938 38v6h-1.296v-4.776h-2.748V44h-1.296v-6h5.34zm5.86-.156c.824 0 1.528.308 2.112.924.584.608.876 1.352.876 2.232 0 .888-.292 1.636-.876 2.244-.584.608-1.288.912-2.112.912-.912 0-1.612-.336-2.1-1.008V46.4h-1.296V38h1.296v.864c.488-.68 1.188-1.02 2.1-1.02zm-1.56 4.536c.36.36.812.54 1.356.54s.996-.18 1.356-.54c.36-.368.54-.828.54-1.38 0-.552-.18-1.008-.54-1.368-.36-.368-.812-.552-1.356-.552s-.996.184-1.356.552c-.36.36-.54.816-.54 1.368 0 .552.18 1.012.54 1.38zm9.514 1.776c-.88 0-1.628-.304-2.244-.912-.616-.608-.924-1.356-.924-2.244 0-.888.308-1.636.924-2.244.616-.608 1.364-.912 2.244-.912.888 0 1.636.304 2.244.912.616.608.924 1.356.924 2.244 0 .888-.308 1.636-.924 2.244-.608.608-1.356.912-2.244.912zm-1.332-1.8c.36.36.804.54 1.332.54s.972-.18 1.332-.54c.36-.36.54-.812.54-1.356s-.18-.996-.54-1.356a1.81 1.81 0 00-1.332-.54c-.528 0-.972.18-1.332.54-.36.36-.54.812-.54 1.356s.18.996.54 1.356zM155.396 38h.996v6h-1.272v-3.816L152.048 44h-.996v-6h1.272v3.804L155.396 38zm6.832 2.928c.64.288.96.764.96 1.428 0 .512-.208.94-.624 1.284-.416.344-.996.516-1.74.516-1.208 0-2.024-.48-2.448-1.44l1.056-.624c.216.6.684.9 1.404.9.336 0 .6-.068.792-.204a.673.673 0 00.288-.564.593.593 0 00-.228-.492c-.152-.128-.364-.192-.636-.192h-.852V40.4h.636c.264 0 .468-.06.612-.18a.64.64 0 00.228-.516.604.604 0 00-.252-.504c-.168-.136-.392-.204-.672-.204-.6 0-1.016.264-1.248.792l-1.056-.6c.448-.896 1.208-1.344 2.28-1.344.672 0 1.204.172 1.596.516.4.336.6.748.6 1.236 0 .6-.232 1.044-.696 1.332zm7.13-.012c.592.272.888.732.888 1.38 0 .504-.172.916-.516 1.236-.336.312-.82.468-1.452.468h-3.072v-6h2.832c.616 0 1.092.156 1.428.468.344.304.516.7.516 1.188 0 .568-.208.988-.624 1.26zm-1.416-1.812h-1.5v1.332h1.5c.528 0 .792-.224.792-.672 0-.44-.264-.66-.792-.66zm.216 3.768c.544 0 .816-.236.816-.708 0-.208-.072-.368-.216-.48-.144-.12-.344-.18-.6-.18h-1.716v1.368h1.716zm6.934 1.284c-.88 0-1.628-.304-2.244-.912-.616-.608-.924-1.356-.924-2.244 0-.888.308-1.636.924-2.244.616-.608 1.364-.912 2.244-.912.888 0 1.636.304 2.244.912.616.608.924 1.356.924 2.244 0 .888-.308 1.636-.924 2.244-.608.608-1.356.912-2.244.912zm-1.332-1.8c.36.36.804.54 1.332.54s.972-.18 1.332-.54c.36-.36.54-.812.54-1.356s-.18-.996-.54-1.356a1.81 1.81 0 00-1.332-.54c-.528 0-.972.18-1.332.54-.36.36-.54.812-.54 1.356s.18.996.54 1.356zm11.678.42h.804v2.832h-1.272V44h-4.116v1.608h-1.272v-2.832h.732c.368-.52.552-1.244.552-2.172V38h4.572v4.776zm-3.696 0h2.424v-3.588h-2.028v1.416c0 .856-.132 1.58-.396 2.172zm9.11 1.38c-.904 0-1.66-.304-2.268-.912-.6-.608-.9-1.356-.9-2.244 0-.896.3-1.644.9-2.244.608-.608 1.364-.912 2.268-.912.584 0 1.116.14 1.596.42.48.28.84.656 1.08 1.128l-1.116.648a1.491 1.491 0 00-.624-.672 1.767 1.767 0 00-.948-.252c-.528 0-.972.18-1.332.54-.352.36-.528.808-.528 1.344s.176.984.528 1.344c.36.36.804.54 1.332.54.352 0 .668-.084.948-.252.288-.168.504-.392.648-.672l1.116.636c-.256.48-.624.86-1.104 1.14a3.11 3.11 0 01-1.596.42zM199.974 38v1.248h-1.956V44h-1.296v-4.752h-1.968V38h5.22zm5.989 2.916c.592.272.888.732.888 1.38 0 .504-.172.916-.516 1.236-.336.312-.82.468-1.452.468h-3.072v-6h2.832c.616 0 1.092.156 1.428.468.344.304.516.7.516 1.188 0 .568-.208.988-.624 1.26zm-1.416-1.812h-1.5v1.332h1.5c.528 0 .792-.224.792-.672 0-.44-.264-.66-.792-.66zm.216 3.768c.544 0 .816-.236.816-.708 0-.208-.072-.368-.216-.48-.144-.12-.344-.18-.6-.18h-1.716v1.368h1.716zm5.122-1.32c.096.456.316.808.66 1.056.344.24.764.36 1.26.36.688 0 1.204-.248 1.548-.744l1.068.624c-.592.872-1.468 1.308-2.628 1.308-.976 0-1.764-.296-2.364-.888-.6-.6-.9-1.356-.9-2.268 0-.896.296-1.644.888-2.244.592-.608 1.352-.912 2.28-.912.88 0 1.6.308 2.16.924.568.616.852 1.364.852 2.244 0 .136-.016.316-.048.54h-4.776zm-.012-1.056h3.528c-.088-.488-.292-.856-.612-1.104a1.721 1.721 0 00-1.104-.372c-.48 0-.88.132-1.2.396-.32.264-.524.624-.612 1.08zM220.853 38h1.296v6h-1.296v-2.388h-2.748V44h-1.296v-6h1.296v2.388h2.748V38zm7.804 0h1.296v6h-1.296v-2.388h-2.748V44h-1.296v-6h1.296v2.388h2.748V38zm6.592 6.156c-.88 0-1.628-.304-2.244-.912-.616-.608-.924-1.356-.924-2.244 0-.888.308-1.636.924-2.244.616-.608 1.364-.912 2.244-.912.888 0 1.636.304 2.244.912.616.608.924 1.356.924 2.244 0 .888-.308 1.636-.924 2.244-.608.608-1.356.912-2.244.912zm-1.332-1.8c.36.36.804.54 1.332.54s.972-.18 1.332-.54c.36-.36.54-.812.54-1.356s-.18-.996-.54-1.356a1.81 1.81 0 00-1.332-.54c-.528 0-.972.18-1.332.54-.36.36-.54.812-.54 1.356s.18.996.54 1.356zM47.133 58.976v-1.248h4.44v1.248h-4.44zm9.825 3.18c-.904 0-1.66-.304-2.268-.912-.6-.608-.9-1.356-.9-2.244 0-.896.3-1.644.9-2.244.608-.608 1.364-.912 2.268-.912.584 0 1.116.14 1.596.42.48.28.84.656 1.08 1.128l-1.116.648a1.491 1.491 0 00-.624-.672 1.767 1.767 0 00-.948-.252c-.528 0-.972.18-1.332.54-.352.36-.528.808-.528 1.344s.176.984.528 1.344c.36.36.804.54 1.332.54.352 0 .668-.084.948-.252.288-.168.504-.392.648-.672l1.116.636c-.256.48-.624.86-1.104 1.14a3.11 3.11 0 01-1.596.42zM66.08 56v1.248h-1.956V62h-1.296v-4.752H60.86V56h5.22zm5.233-.156c.824 0 1.528.308 2.112.924.584.608.876 1.352.876 2.232 0 .888-.292 1.636-.876 2.244-.584.608-1.288.912-2.112.912-.912 0-1.612-.336-2.1-1.008V64.4h-1.296V56h1.296v.864c.488-.68 1.188-1.02 2.1-1.02zm-1.56 4.536c.36.36.812.54 1.356.54s.996-.18 1.356-.54c.36-.368.54-.828.54-1.38 0-.552-.18-1.008-.54-1.368-.36-.368-.812-.552-1.356-.552s-.996.184-1.356.552c-.36.36-.54.816-.54 1.368 0 .552.18 1.012.54 1.38zm9.515 1.776c-.88 0-1.628-.304-2.244-.912-.616-.608-.924-1.356-.924-2.244 0-.888.308-1.636.924-2.244.616-.608 1.364-.912 2.244-.912.888 0 1.636.304 2.244.912.616.608.924 1.356.924 2.244 0 .888-.308 1.636-.924 2.244-.608.608-1.356.912-2.244.912zm-1.332-1.8c.36.36.804.54 1.332.54s.972-.18 1.332-.54c.36-.36.54-.812.54-1.356s-.18-.996-.54-1.356a1.81 1.81 0 00-1.332-.54c-.528 0-.972.18-1.332.54-.36.36-.54.812-.54 1.356s.18.996.54 1.356zM88.912 56h.996v6h-1.272v-3.816L85.564 62h-.996v-6h1.272v3.804L88.912 56zm8.043 0v1.248H95V62h-1.295v-4.752h-1.968V56h5.22zm2.623 3.552c.096.456.316.808.66 1.056.344.24.764.36 1.26.36.688 0 1.204-.248 1.548-.744l1.068.624c-.592.872-1.468 1.308-2.628 1.308-.976 0-1.764-.296-2.364-.888-.6-.6-.9-1.356-.9-2.268 0-.896.296-1.644.888-2.244.592-.608 1.352-.912 2.28-.912.88 0 1.6.308 2.16.924.568.616.852 1.364.852 2.244 0 .136-.016.316-.048.54h-4.776zm-.012-1.056h3.528c-.088-.488-.292-.856-.612-1.104a1.721 1.721 0 00-1.104-.372c-.48 0-.88.132-1.2.396-.32.264-.524.624-.612 1.08zM111.332 56v6h-1.296v-4.752h-2.004v2.232c0 .952-.208 1.628-.624 2.028-.416.4-1.008.564-1.776.492v-1.212c.368.064.644-.012.828-.228.184-.216.276-.596.276-1.14V56h4.596zm5.086 2.04c.64 0 1.164.184 1.572.552.408.36.612.836.612 1.428 0 .584-.204 1.06-.612 1.428-.408.368-.932.552-1.572.552h-2.616v-6h1.296v2.04h1.32zm.012 2.796a.912.912 0 00.636-.228.741.741 0 00.264-.588.72.72 0 00-.264-.588.912.912 0 00-.636-.228h-1.332v1.632h1.332zM124.666 56h1.296v6h-1.296v-2.388h-2.748V62h-1.296v-6h1.296v2.388h2.748V56zm8.511 0h1.296v6h-1.296v-.864c-.488.68-1.188 1.02-2.1 1.02-.824 0-1.528-.304-2.112-.912-.584-.616-.876-1.364-.876-2.244 0-.888.292-1.636.876-2.244.584-.608 1.288-.912 2.112-.912.912 0 1.612.336 2.1 1.008V56zm-3.252 4.38c.36.36.812.54 1.356.54s.996-.18 1.356-.54c.36-.368.54-.828.54-1.38 0-.552-.18-1.008-.54-1.368-.36-.368-.812-.552-1.356-.552s-.996.184-1.356.552c-.36.36-.54.816-.54 1.368 0 .552.18 1.012.54 1.38zM141.588 56v6h-1.272v-2.016h-.72L138.072 62h-1.524l1.62-2.136a2 2 0 01-1.008-.72 1.923 1.923 0 01-.372-1.152c0-.552.196-1.02.588-1.404.4-.392.912-.588 1.536-.588h2.676zm-2.604 2.868h1.332v-1.692h-1.332a.974.974 0 00-.66.228c-.176.152-.264.36-.264.624 0 .256.088.46.264.612a.974.974 0 00.66.228zM153.32 62h-1.548l-2.46-2.772V62h-1.296v-6h1.296v2.652L151.64 56h1.584l-2.64 2.94L153.32 62zm4.184.156c-.88 0-1.628-.304-2.244-.912-.616-.608-.924-1.356-.924-2.244 0-.888.308-1.636.924-2.244.616-.608 1.364-.912 2.244-.912.888 0 1.636.304 2.244.912.616.608.924 1.356.924 2.244 0 .888-.308 1.636-.924 2.244-.608.608-1.356.912-2.244.912zm-1.332-1.8c.36.36.804.54 1.332.54s.972-.18 1.332-.54c.36-.36.54-.812.54-1.356s-.18-.996-.54-1.356a1.81 1.81 0 00-1.332-.54c-.528 0-.972.18-1.332.54-.36.36-.54.812-.54 1.356s.18.996.54 1.356zM168.924 56v6h-1.26v-3.948l-1.728 2.748h-.156l-1.716-2.736V62h-1.26v-6h1.32l1.74 2.772 1.74-2.772h1.32zm7.797 0v6h-1.296v-4.776h-2.748V62h-1.296v-6h5.34zm7.216 0h1.296v6h-1.296v-.864c-.488.68-1.188 1.02-2.1 1.02-.824 0-1.528-.304-2.112-.912-.584-.616-.876-1.364-.876-2.244 0-.888.292-1.636.876-2.244.584-.608 1.288-.912 2.112-.912.912 0 1.612.336 2.1 1.008V56zm-3.252 4.38c.36.36.812.54 1.356.54s.996-.18 1.356-.54c.36-.368.54-.828.54-1.38 0-.552-.18-1.008-.54-1.368-.36-.368-.812-.552-1.356-.552s-.996.184-1.356.552c-.36.36-.54.816-.54 1.368 0 .552.18 1.012.54 1.38zM191.747 56h1.296v6h-1.296v-2.388h-2.748V62h-1.296v-6h1.296v2.388h2.748V56zm8.104 0h.996v6h-1.272v-3.816L196.503 62h-.996v-6h1.272v3.804L199.851 56zm8.104 0v6h-1.272v-2.016h-.72L204.439 62h-1.524l1.62-2.136a2 2 0 01-1.008-.72 1.923 1.923 0 01-.372-1.152c0-.552.196-1.02.588-1.404.4-.392.912-.588 1.536-.588h2.676zm-2.604 2.868h1.332v-1.692h-1.332a.974.974 0 00-.66.228c-.176.152-.264.36-.264.624 0 .256.088.46.264.612a.974.974 0 00.66.228z" fill="#2B2A28"/></svg>