<svg width="495" height="54" fill="none" xmlns="http://www.w3.org/2000/svg"><path d="M272.825 3.9v1.43h-2.561V13h-1.495V5.33h-2.574V3.9h6.63zm3.955 9.269c-.954 0-1.764-.33-2.431-.988-.668-.659-1.001-1.469-1.001-2.431s.333-1.772 1.001-2.431c.667-.659 1.477-.988 2.431-.988.962 0 1.772.33 2.431.988.667.659 1.001 1.469 1.001 2.431s-.334 1.772-1.001 2.431c-.659.659-1.469.988-2.431.988zm-1.443-1.95c.39.39.871.585 1.443.585a1.96 1.96 0 001.443-.585c.39-.39.585-.88.585-1.469 0-.59-.195-1.079-.585-1.469a1.96 1.96 0 00-1.443-.585 1.96 1.96 0 00-1.443.585c-.39.39-.585.88-.585 1.469 0 .59.195 1.079.585 1.469zM288.267 13h-1.677l-2.665-3.003V13h-1.404V3.9h1.404v5.473l2.522-2.873h1.716l-2.86 3.185L288.267 13zm6.612-6.5h1.404V13h-1.404v-.936c-.529.737-1.287 1.105-2.275 1.105-.893 0-1.655-.33-2.288-.988-.633-.667-.949-1.478-.949-2.431 0-.962.316-1.772.949-2.431s1.395-.988 2.288-.988c.988 0 1.746.364 2.275 1.092V6.5zm-3.523 4.745c.39.39.88.585 1.469.585.589 0 1.079-.195 1.469-.585.39-.399.585-.897.585-1.495 0-.598-.195-1.092-.585-1.482-.39-.399-.88-.598-1.469-.598-.589 0-1.079.2-1.469.598-.39.39-.585.884-.585 1.482s.195 1.096.585 1.495zm9.007-3.653c.356-.806 1.023-1.209 2.002-1.209v1.521c-.537-.035-1.005.095-1.404.39-.398.286-.598.763-.598 1.43V13h-1.404V6.5h1.404v1.092zm8.474 5.577c-1.37 0-2.505-.45-3.406-1.352-.902-.91-1.352-2.032-1.352-3.367s.45-2.453 1.352-3.354c.901-.91 2.036-1.365 3.406-1.365.823 0 1.581.195 2.275.585a4.24 4.24 0 011.638 1.586l-1.3.754a2.632 2.632 0 00-1.066-1.066 3.009 3.009 0 00-1.547-.403c-.971 0-1.76.308-2.366.923-.598.615-.897 1.395-.897 2.34 0 .945.299 1.725.897 2.34.606.615 1.395.923 2.366.923.572 0 1.092-.13 1.56-.39a2.627 2.627 0 001.053-1.079l1.3.741a4.243 4.243 0 01-1.625 1.599 4.589 4.589 0 01-2.288.585zm9.159 0c-.953 0-1.764-.33-2.431-.988-.667-.659-1.001-1.469-1.001-2.431s.334-1.772 1.001-2.431c.667-.659 1.478-.988 2.431-.988.962 0 1.772.33 2.431.988.667.659 1.001 1.469 1.001 2.431s-.334 1.772-1.001 2.431c-.659.659-1.469.988-2.431.988zm-1.443-1.95c.39.39.871.585 1.443.585a1.96 1.96 0 001.443-.585c.39-.39.585-.88.585-1.469 0-.59-.195-1.079-.585-1.469a1.96 1.96 0 00-1.443-.585 1.96 1.96 0 00-1.443.585c-.39.39-.585.88-.585 1.469 0 .59.195 1.079.585 1.469zm14.283-4.888c.736 0 1.33.238 1.781.715.45.477.676 1.118.676 1.924V13h-1.404V9.061c0-.45-.113-.797-.338-1.04-.226-.251-.533-.377-.923-.377-.434 0-.78.143-1.04.429-.252.286-.377.715-.377 1.287V13h-1.404V9.061c0-.45-.109-.797-.325-1.04-.208-.251-.507-.377-.897-.377-.425 0-.772.147-1.04.442-.269.286-.403.71-.403 1.274V13h-1.404V6.5h1.404v.78c.416-.633 1.035-.949 1.859-.949.832 0 1.447.342 1.846 1.027.433-.685 1.096-1.027 1.989-1.027zm8.678 0c.893 0 1.656.334 2.288 1.001.633.659.949 1.465.949 2.418 0 .962-.316 1.772-.949 2.431-.632.659-1.395.988-2.288.988-.988 0-1.746-.364-2.275-1.092V15.6h-1.404V6.5h1.404v.936c.529-.737 1.287-1.105 2.275-1.105zm-1.69 4.914c.39.39.88.585 1.469.585.59 0 1.079-.195 1.469-.585.39-.399.585-.897.585-1.495 0-.598-.195-1.092-.585-1.482-.39-.399-.879-.598-1.469-.598-.589 0-1.079.2-1.469.598-.39.39-.585.884-.585 1.482s.195 1.096.585 1.495zM350.212 6.5h1.404V13h-1.404v-.936c-.529.737-1.287 1.105-2.275 1.105-.893 0-1.656-.33-2.288-.988-.633-.667-.949-1.478-.949-2.431 0-.962.316-1.772.949-2.431.632-.659 1.395-.988 2.288-.988.988 0 1.746.364 2.275 1.092V6.5zm-3.523 4.745c.39.39.879.585 1.469.585.589 0 1.079-.195 1.469-.585.39-.399.585-.897.585-1.495 0-.598-.195-1.092-.585-1.482-.39-.399-.88-.598-1.469-.598-.59 0-1.079.2-1.469.598-.39.39-.585.884-.585 1.482s.195 1.096.585 1.495zm11.022-4.914c.746 0 1.348.238 1.807.715.46.477.689 1.131.689 1.963V13h-1.404V9.152c0-.485-.13-.858-.39-1.118-.26-.26-.615-.39-1.066-.39-.494 0-.892.156-1.196.468-.303.303-.455.771-.455 1.404V13h-1.404V6.5h1.404v.832c.425-.667 1.097-1.001 2.015-1.001zm9.302.169h1.495l-2.496 6.708c-.624 1.681-1.681 2.479-3.172 2.392v-1.313c.442.026.797-.07 1.066-.286.269-.208.49-.537.663-.988l.065-.13-2.756-6.383h1.534l1.937 4.719 1.664-4.719zm7.794 3.224V8.372h4.81v1.352h-4.81zM272.604 24.5V31H271.2v-5.174h-2.977V31h-1.404v-6.5h5.785zm6.348-.169c.893 0 1.655.334 2.288 1.001.633.659.949 1.465.949 2.418 0 .962-.316 1.772-.949 2.431s-1.395.988-2.288.988c-.988 0-1.746-.364-2.275-1.092V33.6h-1.404v-9.1h1.404v.936c.529-.737 1.287-1.105 2.275-1.105zm-1.69 4.914c.39.39.88.585 1.469.585.589 0 1.079-.195 1.469-.585.39-.399.585-.897.585-1.495 0-.598-.195-1.092-.585-1.482-.39-.399-.88-.598-1.469-.598-.589 0-1.079.2-1.469.598-.39.39-.585.884-.585 1.482s.195 1.096.585 1.495zm10.308 1.924c-.954 0-1.764-.33-2.431-.988-.668-.659-1.001-1.469-1.001-2.431s.333-1.772 1.001-2.431c.667-.659 1.477-.988 2.431-.988.962 0 1.772.33 2.431.988.667.659 1.001 1.469 1.001 2.431s-.334 1.772-1.001 2.431c-.659.659-1.469.988-2.431.988zm-1.443-1.95c.39.39.871.585 1.443.585a1.96 1.96 0 001.443-.585c.39-.39.585-.88.585-1.469 0-.59-.195-1.079-.585-1.469a1.96 1.96 0 00-1.443-.585 1.96 1.96 0 00-1.443.585c-.39.39-.585.88-.585 1.469 0 .59.195 1.079.585 1.469zm11.89-4.719h1.079V31h-1.378v-4.134L294.39 31h-1.079v-6.5h1.378v4.121l3.328-4.121zm7.401 3.172c.693.312 1.04.828 1.04 1.547 0 .555-.225 1.018-.676 1.391-.451.373-1.079.559-1.885.559-1.309 0-2.193-.52-2.652-1.56l1.144-.676c.234.65.741.975 1.521.975.364 0 .65-.074.858-.221a.73.73 0 00.312-.611.641.641 0 00-.247-.533c-.165-.139-.394-.208-.689-.208h-.923V27.1h.689c.286 0 .507-.065.663-.195a.692.692 0 00.247-.559.654.654 0 00-.273-.546c-.182-.147-.425-.221-.728-.221-.65 0-1.101.286-1.352.858l-1.144-.65c.485-.97 1.309-1.456 2.47-1.456.728 0 1.304.186 1.729.559.433.364.65.81.65 1.339 0 .65-.251 1.131-.754 1.443zm7.725-.013c.641.295.962.793.962 1.495 0 .546-.186.992-.559 1.339-.364.338-.888.507-1.573.507h-3.328v-6.5h3.068c.667 0 1.183.169 1.547.507.373.33.559.758.559 1.287 0 .615-.225 1.07-.676 1.365zm-1.534-1.963h-1.625v1.443h1.625c.572 0 .858-.243.858-.728 0-.477-.286-.715-.858-.715zm.234 4.082c.589 0 .884-.256.884-.767 0-.225-.078-.399-.234-.52-.156-.13-.373-.195-.65-.195h-1.859v1.482h1.859zm7.512 1.391c-.954 0-1.764-.33-2.431-.988-.668-.659-1.001-1.469-1.001-2.431s.333-1.772 1.001-2.431c.667-.659 1.477-.988 2.431-.988.962 0 1.772.33 2.431.988.667.659 1.001 1.469 1.001 2.431s-.334 1.772-1.001 2.431c-.659.659-1.469.988-2.431.988zm-1.443-1.95c.39.39.871.585 1.443.585a1.96 1.96 0 001.443-.585c.39-.39.585-.88.585-1.469 0-.59-.195-1.079-.585-1.469a1.96 1.96 0 00-1.443-.585 1.96 1.96 0 00-1.443.585c-.39.39-.585.88-.585 1.469 0 .59.195 1.079.585 1.469zm12.65.455h.871v3.068h-1.378V31h-4.459v1.742h-1.378v-3.068h.793c.399-.563.598-1.348.598-2.353V24.5h4.953v5.174zm-4.004 0h2.626v-3.887h-2.197v1.534c0 .927-.143 1.712-.429 2.353zm9.87 1.495c-.98 0-1.799-.33-2.457-.988-.65-.659-.975-1.469-.975-2.431 0-.97.325-1.781.975-2.431.658-.659 1.477-.988 2.457-.988a3.37 3.37 0 011.729.455c.52.303.91.71 1.17 1.222l-1.209.702a1.62 1.62 0 00-.676-.728 1.915 1.915 0 00-1.027-.273 1.96 1.96 0 00-1.443.585c-.382.39-.572.875-.572 1.456 0 .58.19 1.066.572 1.456.39.39.871.585 1.443.585a1.96 1.96 0 001.027-.273c.312-.182.546-.425.702-.728l1.209.689c-.278.52-.676.932-1.196 1.235a3.37 3.37 0 01-1.729.455zm9.882-6.669v1.352h-2.119V31h-1.404v-5.148h-2.132V24.5h5.655zm6.488 3.159c.641.295.962.793.962 1.495 0 .546-.186.992-.559 1.339-.364.338-.888.507-1.573.507H348.3v-6.5h3.068c.667 0 1.183.169 1.547.507.373.33.559.758.559 1.287 0 .615-.225 1.07-.676 1.365zm-1.534-1.963h-1.625v1.443h1.625c.572 0 .858-.243.858-.728 0-.477-.286-.715-.858-.715zm.234 4.082c.589 0 .884-.256.884-.767 0-.225-.078-.399-.234-.52-.156-.13-.373-.195-.65-.195h-1.859v1.482h1.859zm5.549-1.43c.104.494.342.875.715 1.144.372.26.827.39 1.365.39.745 0 1.304-.269 1.677-.806l1.157.676c-.642.945-1.591 1.417-2.847 1.417-1.058 0-1.911-.32-2.561-.962-.65-.65-.975-1.469-.975-2.457 0-.97.32-1.781.962-2.431.641-.659 1.464-.988 2.47-.988.953 0 1.733.334 2.34 1.001.615.667.923 1.478.923 2.431 0 .147-.018.342-.052.585h-5.174zm-.013-1.144h3.822c-.096-.529-.317-.927-.663-1.196a1.865 1.865 0 00-1.196-.403c-.52 0-.954.143-1.3.429-.347.286-.568.676-.663 1.17zm11.895-2.704h1.404V31h-1.404v-2.587h-2.977V31h-1.404v-6.5h1.404v2.587h2.977V24.5zm8.454 0h1.404V31h-1.404v-2.587h-2.977V31h-1.404v-6.5h1.404v2.587h2.977V24.5zm7.141 6.669c-.953 0-1.764-.33-2.431-.988-.667-.659-1.001-1.469-1.001-2.431s.334-1.772 1.001-2.431c.667-.659 1.478-.988 2.431-.988.962 0 1.772.33 2.431.988.667.659 1.001 1.469 1.001 2.431s-.334 1.772-1.001 2.431c-.659.659-1.469.988-2.431.988zm-1.443-1.95c.39.39.871.585 1.443.585a1.96 1.96 0 001.443-.585c.39-.39.585-.88.585-1.469 0-.59-.195-1.079-.585-1.469a1.96 1.96 0 00-1.443-.585 1.96 1.96 0 00-1.443.585c-.39.39-.585.88-.585 1.469 0 .59.195 1.079.585 1.469zm7.276-1.495v-1.352h4.81v1.352h-4.81zm10.644 3.445c-.98 0-1.799-.33-2.457-.988-.65-.659-.975-1.469-.975-2.431 0-.97.325-1.781.975-2.431.658-.659 1.477-.988 2.457-.988a3.37 3.37 0 011.729.455c.52.303.91.71 1.17 1.222l-1.209.702a1.62 1.62 0 00-.676-.728 1.915 1.915 0 00-1.027-.273 1.96 1.96 0 00-1.443.585c-.382.39-.572.875-.572 1.456 0 .58.19 1.066.572 1.456.39.39.871.585 1.443.585a1.96 1.96 0 001.027-.273c.312-.182.546-.425.702-.728l1.209.689c-.278.52-.676.932-1.196 1.235a3.37 3.37 0 01-1.729.455zm9.882-6.669v1.352h-2.119V31h-1.404v-5.148h-2.132V24.5h5.655zm5.669-.169c.893 0 1.655.334 2.288 1.001.633.659.949 1.465.949 2.418 0 .962-.316 1.772-.949 2.431s-1.395.988-2.288.988c-.988 0-1.746-.364-2.275-1.092V33.6h-1.404v-9.1h1.404v.936c.529-.737 1.287-1.105 2.275-1.105zm-1.69 4.914c.39.39.88.585 1.469.585.589 0 1.079-.195 1.469-.585.39-.399.585-.897.585-1.495 0-.598-.195-1.092-.585-1.482-.39-.399-.88-.598-1.469-.598-.589 0-1.079.2-1.469.598-.39.39-.585.884-.585 1.482s.195 1.096.585 1.495zm10.307 1.924c-.953 0-1.763-.33-2.431-.988-.667-.659-1.001-1.469-1.001-2.431s.334-1.772 1.001-2.431c.668-.659 1.478-.988 2.431-.988.962 0 1.773.33 2.431.988.668.659 1.001 1.469 1.001 2.431s-.333 1.772-1.001 2.431c-.658.659-1.469.988-2.431.988zm-1.443-1.95c.39.39.871.585 1.443.585a1.96 1.96 0 001.443-.585c.39-.39.585-.88.585-1.469 0-.59-.195-1.079-.585-1.469a1.96 1.96 0 00-1.443-.585 1.96 1.96 0 00-1.443.585c-.39.39-.585.88-.585 1.469 0 .59.195 1.079.585 1.469zm11.891-4.719h1.079V31h-1.378v-4.134L431.99 31h-1.079v-6.5h1.378v4.121l3.328-4.121zm8.714 0v1.352h-2.119V31h-1.404v-5.148h-2.132V24.5h5.655zm2.841 3.848c.104.494.343.875.715 1.144.373.26.828.39 1.365.39.746 0 1.305-.269 1.677-.806l1.157.676c-.641.945-1.59 1.417-2.847 1.417-1.057 0-1.911-.32-2.561-.962-.65-.65-.975-1.469-.975-2.457 0-.97.321-1.781.962-2.431.642-.659 1.465-.988 2.47-.988.954 0 1.734.334 2.34 1.001.616.667.923 1.478.923 2.431 0 .147-.017.342-.052.585h-5.174zm-.013-1.144h3.822c-.095-.529-.316-.927-.663-1.196a1.863 1.863 0 00-1.196-.403c-.52 0-.953.143-1.3.429-.346.286-.567.676-.663 1.17zm12.747-2.704V31h-1.404v-5.148h-2.171v2.418c0 1.031-.226 1.764-.676 2.197-.451.433-1.092.611-1.924.533v-1.313c.398.07.697-.013.897-.247.199-.234.299-.646.299-1.235V24.5h4.979zm5.51 2.21c.693 0 1.261.2 1.703.598.442.39.663.906.663 1.547 0 .633-.221 1.148-.663 1.547-.442.399-1.01.598-1.703.598h-2.834v-6.5h1.404v2.21h1.43zm.013 3.029a.988.988 0 00.689-.247.805.805 0 00.286-.637.781.781 0 00-.286-.637.988.988 0 00-.689-.247h-1.443v1.768h1.443zm8.921-5.239h1.404V31h-1.404v-2.587h-2.977V31h-1.404v-6.5h1.404v2.587h2.977V24.5zm9.221 0h1.404V31h-1.404v-.936c-.528.737-1.287 1.105-2.275 1.105-.892 0-1.655-.33-2.288-.988-.632-.667-.949-1.478-.949-2.431 0-.962.317-1.772.949-2.431.633-.659 1.396-.988 2.288-.988.988 0 1.747.364 2.275 1.092V24.5zm-3.523 4.745c.39.39.88.585 1.469.585.59 0 1.079-.195 1.469-.585.39-.399.585-.897.585-1.495 0-.598-.195-1.092-.585-1.482-.39-.399-.879-.598-1.469-.598-.589 0-1.079.2-1.469.598-.39.39-.585.884-.585 1.482s.195 1.096.585 1.495zm12.635-4.745V31h-1.378v-2.184h-.78L488.874 31h-1.651l1.755-2.314a2.163 2.163 0 01-1.092-.78 2.082 2.082 0 01-.403-1.248c0-.598.212-1.105.637-1.521.433-.425.988-.637 1.664-.637h2.899zm-2.821 3.107h1.443v-1.833h-1.443c-.286 0-.524.082-.715.247-.191.165-.286.39-.286.676 0 .277.095.498.286.663.191.165.429.247.715.247zM272.565 49h-1.677l-2.665-3.003V49h-1.404v-6.5h1.404v2.873l2.522-2.873h1.716l-2.86 3.185L272.565 49zm4.532.169c-.953 0-1.764-.33-2.431-.988-.667-.659-1.001-1.469-1.001-2.431s.334-1.772 1.001-2.431c.667-.659 1.478-.988 2.431-.988.962 0 1.772.33 2.431.988.667.659 1.001 1.469 1.001 2.431s-.334 1.772-1.001 2.431c-.659.659-1.469.988-2.431.988zm-1.443-1.95c.39.39.871.585 1.443.585a1.96 1.96 0 001.443-.585c.39-.39.585-.88.585-1.469 0-.59-.195-1.079-.585-1.469a1.96 1.96 0 00-1.443-.585 1.96 1.96 0 00-1.443.585c-.39.39-.585.88-.585 1.469 0 .59.195 1.079.585 1.469zm13.814-4.719V49h-1.365v-4.277l-1.872 2.977h-.169l-1.859-2.964V49h-1.365v-6.5h1.43l1.885 3.003 1.885-3.003h1.43zm8.447 0V49h-1.404v-5.174h-2.977V49h-1.404v-6.5h5.785zm7.817 0h1.404V49h-1.404v-.936c-.528.737-1.287 1.105-2.275 1.105-.892 0-1.655-.33-2.288-.988-.632-.667-.949-1.478-.949-2.431 0-.962.317-1.772.949-2.431.633-.659 1.396-.988 2.288-.988.988 0 1.747.364 2.275 1.092V42.5zm-3.523 4.745c.39.39.88.585 1.469.585.59 0 1.079-.195 1.469-.585.39-.399.585-.897.585-1.495 0-.598-.195-1.092-.585-1.482-.39-.399-.879-.598-1.469-.598-.589 0-1.079.2-1.469.598-.39.39-.585.884-.585 1.482s.195 1.096.585 1.495zm11.985-4.745h1.404V49h-1.404v-2.587h-2.977V49h-1.404v-6.5h1.404v2.587h2.977V42.5zm8.779 0h1.079V49h-1.378v-4.134L319.346 49h-1.079v-6.5h1.378v4.121l3.328-4.121zm8.779 0V49h-1.378v-2.184h-.78L327.943 49h-1.651l1.755-2.314a2.163 2.163 0 01-1.092-.78 2.082 2.082 0 01-.403-1.248c0-.598.212-1.105.637-1.521.433-.425.988-.637 1.664-.637h2.899zm-2.821 3.107h1.443v-1.833h-1.443c-.286 0-.524.082-.715.247-.191.165-.286.39-.286.676 0 .277.095.498.286.663.191.165.429.247.715.247zM135.41 42.382c-.867 0-1.585-.285-2.156-.856-.57-.58-.845-1.289-.845-2.145 0-.855.275-1.574.845-2.145.571-.57 1.289-.855 2.156-.855a2.86 2.86 0 011.447.37c.444.242.793.57 1.047.993l-1.279.729a1.174 1.174 0 00-.486-.476 1.436 1.436 0 00-.729-.18c-.465 0-.835.138-1.12.434-.275.285-.423.666-.423 1.13 0 .465.148.846.423 1.131.285.285.655.433 1.12.433.264 0 .507-.063.729-.18a1.2 1.2 0 00.486-.485l1.279.74c-.254.422-.603.75-1.047.992-.443.243-.919.37-1.447.37zm18.84-.866c-.581.57-1.3.866-2.145.866a2.937 2.937 0 01-2.135-.866c-.591-.581-.877-1.29-.877-2.135 0-.845.286-1.553.877-2.134.582-.581 1.29-.866 2.135-.866.845 0 1.564.285 2.145.866s.877 1.29.877 2.134c0 .846-.296 1.554-.877 2.135zm-3.255-1.014a1.51 1.51 0 001.11.443c.444 0 .814-.148 1.109-.444.296-.295.444-.665.444-1.12 0-.454-.148-.834-.444-1.12-.295-.296-.665-.443-1.109-.443a1.51 1.51 0 00-1.11.443c-.295.286-.443.666-.443 1.12 0 .455.148.825.443 1.12zm21.704-4.005v5.758h-1.458V39.16l-1.405 2.304h-.148l-1.385-2.293v3.085h-1.479v-5.758h1.479l1.459 2.462 1.479-2.462h1.458zm14.17 0c.581 0 1.067.19 1.468.57.391.38.592.867.592 1.448 0 .592-.201 1.067-.592 1.448-.401.38-.887.57-1.468.57h-.761v1.722h-1.479v-5.758h2.24zm0 2.63a.527.527 0 00.412-.168.598.598 0 00.169-.444.598.598 0 00-.169-.444.566.566 0 00-.412-.169h-.761v1.226h.761zm16.705 3.128l-.285-.824h-1.955l-.243.825h-1.595l1.828-5.76h1.859l1.902 5.76h-1.511zm-1.859-2.092h1.162l-.592-1.965-.57 1.965zm17.984-3.666h1.458v5.758h-1.131l-2.028-2.895v2.895h-1.469v-5.758h1.141l2.029 2.895v-2.895zm18.301 0l-1.944 3.55v2.209h-1.469v-2.198l-1.944-3.561h1.648l1.025 2.134 1.025-2.134H238z" fill="#2B2A28"/><path fill-rule="evenodd" clip-rule="evenodd" d="M165.028 11.063l15.913 17.805h-6.034l-15.913-17.805h6.034zm17.741 0l15.913 17.805h-6.023l-15.913-17.805h6.023zm17.794 0l15.913 17.805h-6.033l-15.914-17.805h6.034z" fill="#CB8734"/><path fill-rule="evenodd" clip-rule="evenodd" d="M228.173 22.782l5.431 6.086h-4.85l-5.441-6.086-3.921-4.322h12.184c.866 0 1.585-.708 1.585-1.575 0-.855-.719-1.574-1.585-1.574H216.92L212.598 11h18.978c3.243 0 5.896 2.652 5.896 5.886 0 3.244-2.653 5.896-5.896 5.896h-3.403zM0 11.063h28.762v4.311H16.537v13.494h-4.312V15.375H0v-4.312zm50.709 0h13.969c4.638 0 8.432 3.794 8.432 8.422v.95c0 4.64-3.794 8.433-8.432 8.433h-13.97c-4.638 0-8.431-3.793-8.431-8.432v-.951c0-4.628 3.793-8.422 8.432-8.422zm0 4.311h13.969c2.26 0 4.11 1.85 4.11 4.11v.952c0 2.261-1.85 4.11-4.11 4.11h-13.97a4.122 4.122 0 01-4.11-4.11v-.951c0-2.261 1.85-4.11 4.11-4.11zm42.9-4.31v9.562l.084-.095 14.804-9.468h7.724l-11.898 7.429 14.74 10.376h-7.808l-11.116-7.766-6.53 4.078v3.688h-4.322V11.063h4.322zm52.991.031l16.272 17.773h-20.224l4.311-4.322h6.107l-6.424-7.026-10.366 11.348h-5.579L146.6 11.095z" fill="#2B2A28"/></svg>