<svg width="62" height="63" fill="none" xmlns="http://www.w3.org/2000/svg"><path opacity=".58" fill="#fff" d="M0 0h62v62H0z"/><path d="M39.676 62.093a24.501 24.501 0 0017.75-7.525 2.71 2.71 0 00.677-2.607 2.654 2.654 0 00-1.849-1.883 10.18 10.18 0 01-7.373-9.987c.11-5.512 4.664-9.966 10.17-9.966h.078l.1.001a2.713 2.713 0 002.358-1.279 2.667 2.667 0 00.118-2.645 24.7 24.7 0 00-22.029-13.515 24.703 24.703 0 100 49.406zm-16.109-40.82a22.787 22.787 0 0136.41 5.808.741.741 0 01-.033.739.775.775 0 01-.682.368l-.118-.001h-.091c-6.557 0-11.98 5.304-12.109 11.866a12.12 12.12 0 008.78 11.888.728.728 0 01.508.521.789.789 0 01-.197.758 22.773 22.773 0 01-37.315-7.022 22.776 22.776 0 014.847-24.925zM2.906 16.216v5.096c0 .076.01.152.028.225C.904 32.892.273 40.28 1.827 53.395a124.77 124.77 0 001.178 7.81.968.968 0 00.953.794h5.529a.968.968 0 00.953-.794c.474-2.584.87-5.212 1.178-7.81 1.626-13.72.987-21.322-.962-32.168v-5.01a6.776 6.776 0 002.906-5.56c0-.136-.025-3.334-2.22-5.53-1.48-1.479-.742-3.832-.736-3.852A.969.969 0 009.58.006C4.644.556 2.293 3.439 1.191 5.76A12.615 12.615 0 000 10.656a6.777 6.777 0 002.906 5.56zm6.788 36.95a122.91 122.91 0 01-1.017 6.896h-3.91a122.721 122.721 0 01-1.016-6.895C2.244 40.452 2.833 33.214 4.769 22.28h4.107c1.814 10.28 2.379 17.71.818 30.886zM8.72 20.345H4.844v-3.19a6.762 6.762 0 003.875 0v3.19zM2.94 6.59c1.116-2.35 2.981-3.84 5.554-4.44-.09 1.221.093 2.964 1.476 4.346 1.607 1.607 1.653 4.1 1.654 4.161a4.85 4.85 0 01-4.44 4.824c-.923-1.034-1.343-2.005-1.244-2.89.142-1.283 1.35-2.08 1.362-2.088L6.264 8.868c-.08.051-1.987 1.277-2.246 3.484a4.67 4.67 0 00.46 2.564 4.846 4.846 0 01-2.54-4.258A10.677 10.677 0 012.94 6.591z" fill="#CB8734"/><path d="M45.53 27.218a3.875 3.875 0 100-7.749 3.875 3.875 0 000 7.75zm0-5.812a1.937 1.937 0 110 3.875 1.937 1.937 0 010-3.875zm-12.593 6.781a3.875 3.875 0 100-7.75 3.875 3.875 0 000 7.75zm0-5.812a1.937 1.937 0 110 3.874 1.937 1.937 0 010-3.874zM29.062 33.03a3.875 3.875 0 10-7.75.001 3.875 3.875 0 007.75 0zm-5.812 0a1.937 1.937 0 113.874 0 1.937 1.937 0 01-3.874 0zm3.875 14.532a3.875 3.875 0 100-7.751 3.875 3.875 0 000 7.75zm0-5.813a1.937 1.937 0 110 3.875 1.937 1.937 0 010-3.875zm7.749 5.813a3.875 3.875 0 100 7.75 3.875 3.875 0 000-7.75zm0 5.812a1.937 1.937 0 110-3.874 1.937 1.937 0 010 3.874zm6.782 0a3.875 3.875 0 107.75 0 3.875 3.875 0 00-7.75 0zm5.812 0a1.937 1.937 0 11-3.875 0 1.937 1.937 0 013.875 0zM33.906 35.937a5.813 5.813 0 105.812-5.812 5.82 5.82 0 00-5.812 5.812zm5.812-3.875a3.875 3.875 0 110 7.75 3.875 3.875 0 010-7.75zM16.322 8.44l2.78 1.521 1.52 2.78a.969.969 0 001.7 0l1.52-2.78 2.779-1.52a.969.969 0 000-1.7l-2.78-1.52-1.52-2.78a.968.968 0 00-1.7 0l-1.52 2.78-2.78 1.52a.968.968 0 000 1.7zm3.958-1.655a.968.968 0 00.385-.385l.806-1.475.807 1.475a.968.968 0 00.385.385l1.474.806-1.474.806a.968.968 0 00-.385.385l-.807 1.475-.806-1.475a.969.969 0 00-.385-.385l-1.474-.806 1.474-.806z" fill="#CB8734"/></svg>