<svg width="62" height="62" fill="none" xmlns="http://www.w3.org/2000/svg"><path opacity=".58" fill="#fff" d="M0 0h62v62H0z"/><path d="M57.867 8.267v2.066c1.141 0 2.066.926 2.066 2.067v31H2.067v-31c0-1.141.925-2.067 2.066-2.067V8.267A4.134 4.134 0 000 12.4v35.133a4.134 4.134 0 004.133 4.134h20.311l-2.48 8.266h-2.33V62h22.733v-2.067h-2.331l-2.48-8.266h20.31A4.134 4.134 0 0062 47.533V12.4a4.134 4.134 0 00-4.133-4.133zm-19.99 51.666H24.123l2.48-8.266h8.796l2.48 8.266zm22.056-12.4a2.067 2.067 0 01-2.066 2.067H4.133a2.067 2.067 0 01-2.066-2.067v-2.066h57.866v2.066z" fill="#CB8734"/><path d="M8.267 4.133c0-1.141.925-2.066 2.066-2.066h41.334c1.141 0 2.066.925 2.066 2.066v37.2H55.8v-37.2A4.134 4.134 0 0051.667 0H10.333A4.134 4.134 0 006.2 4.133v37.2h2.067v-37.2z" fill="#CB8734"/><path d="M16.17 34.035l16.534 6.2c.011 0 .025 0 .036.006.105.037.215.057.327.059a1.04 1.04 0 00.413-.096c.017-.007.036 0 .053-.013l12.4-6.2c.349-.176.568-.534.567-.924v-12.4a.99.99 0 00-.027-.207v-.035a1.043 1.043 0 00-.178-.366c-.008-.01-.009-.025-.017-.036L38.011 9.69a1.033 1.033 0 00-1.269-.28L16.076 19.744a1.03 1.03 0 00-.576.923v12.4c0 .43.267.816.67.968zm6.607.207v-6.057l2.066.775v6.06l-2.066-.778zm21.656-1.814L34.1 37.595v-10.09l10.333-5.166v10.089zM36.915 11.63l6.946 8.68-10.51 5.255-6.945-8.68 10.509-5.255zm-19.348 9.674l6.948-3.474 7.518 9.398v10.547l-5.123-1.92v-7.612c0-.43-.267-.816-.67-.967l-4.134-1.55a1.033 1.033 0 00-1.396.967v6.836l-3.143-1.18V21.306zM10.333 37.2v3.1c0 .57.463 1.033 1.034 1.033h3.1v-2.066H12.4V37.2h-2.067zm4.134-28.933h-3.1c-.571 0-1.034.462-1.034 1.033v3.1H12.4v-2.067h2.067V8.267zm35.133 31h-2.067v2.066h3.1c.571 0 1.034-.462 1.034-1.033v-3.1H49.6v2.067zM51.667 9.3c0-.57-.463-1.033-1.034-1.033h-3.1v2.066H49.6V12.4h2.067V9.3z" fill="#CB8734"/></svg>