<svg width="62" height="62" fill="none" xmlns="http://www.w3.org/2000/svg"><path opacity=".58" fill="#fff" d="M0 0h62v62H0z"/><path d="M55.387 10.05a1.136 1.136 0 11-2.272 0V3.634c0-.71-.577-1.286-1.286-1.286H3.633c-.71 0-1.286.577-1.286 1.286v54.735c0 .71.577 1.286 1.286 1.286h48.196c.709 0 1.286-.577 1.286-1.286v-3.39a1.136 1.136 0 112.272 0v3.39a3.562 3.562 0 01-3.558 3.558H3.633a3.562 3.562 0 01-3.558-3.558V3.633A3.562 3.562 0 013.633.075h48.196a3.562 3.562 0 013.558 3.558v6.418z" fill="#CB8734" stroke="#fff" stroke-width=".15"/><path d="M8.234 8.16h-.075v24.172a1.136 1.136 0 11-2.272 0V7.023c0-.627.508-1.135 1.136-1.135h41.416c.627 0 1.136.508 1.136 1.136v3.148a1.136 1.136 0 11-2.272 0V8.159H8.234zm38.994 45.681h.075v-1.528a1.136 1.136 0 112.272 0v2.664c0 .628-.509 1.136-1.136 1.136H7.023a1.136 1.136 0 01-1.136-1.136V41.475a1.136 1.136 0 112.272 0v12.366h39.069z" fill="#CB8734" stroke="#fff" stroke-width=".15"/><path d="M33.37 45.234l.052.053.053-.053 2.393-2.394s0 0 0 0a1.136 1.136 0 111.607 1.607l-2.403 2.403a2.327 2.327 0 01-1.65.682 2.326 2.326 0 01-1.65-.682l-1.488-1.488-.053-.053-.053.053-.959.959s0 0 0 0a1.136 1.136 0 01-1.606-1.607l.968-.968s0 0 0 0c.91-.91 2.39-.91 3.3 0 0 0 0 0 0 0l1.488 1.488zm9.137-29.498h0a3.454 3.454 0 00-2.598 1.006 3.455 3.455 0 00-1.006 2.598c.02.458-.228.89-.635 1.1l-.035-.067.035.066a3.455 3.455 0 00-1.747 2.17l-.073-.019.073.02c-.12.446-.146.907-.084 1.357l.011.085H15.231a1.136 1.136 0 100 2.272h21.86l-.04.102c-.027.07-.06.14-.103.207m5.559-10.897L38.755 32.21c.053.139.08.288.072.441a3.53 3.53 0 001.028 2.655 3.533 3.533 0 002.655 1.028m-.003-20.6a1.18 1.18 0 001.1-.634 3.456 3.456 0 012.17-1.747 3.455 3.455 0 012.753.428 1.18 1.18 0 001.269 0 3.455 3.455 0 012.753-.428 3.45 3.45 0 012.17 1.747c.21.407.64.657 1.1.635a3.453 3.453 0 012.598 1.006 3.456 3.456 0 011.006 2.598c-.021.458.228.89.635 1.1a3.455 3.455 0 011.747 2.17c.25.935.095 1.938-.428 2.753a1.178 1.178 0 000 1.27c.523.814.678 1.818.428 2.753a3.455 3.455 0 01-1.747 2.17 1.18 1.18 0 00-.635 1.1 3.45 3.45 0 01-3.604 3.604h0a1.18 1.18 0 00-1.1.635c-.142.275-.32.527-.527.751l-.02.022v11.34a1.136 1.136 0 01-1.937.805l-3.02-3.005-.054-.053m-6.657-31.018l6.657 31.018M36.948 26.633l-.063-.04.063.04s0 0 0 0zm0 0a3.456 3.456 0 00-.427 2.753h0c.034.128.076.253.125.376l.04.102H15.232a1.136 1.136 0 100 2.272h23.576l.018.049c.056.147.085.307.077.47a3.452 3.452 0 003.604 3.604m0 0l.004.076m-.004-.075c.458-.023.89.228 1.1.635.142.275.32.527.527.751l.02.022v11.339c0 .459.276.873.7 1.049l-.029.069M42.506 36.26s0 0 0 0l.004.075m0 0l2.314 13.79m0 0l.03-.07c.423.177.91.08 1.236-.243l3.021-3.005.053-.053m-4.34 3.37l4.34-3.37m2.611-.607l.128.127V38.75l-.078.003h-.007a3.455 3.455 0 01-2.02-.54 1.179 1.179 0 00-1.268 0 3.456 3.456 0 01-2.026.541l-.079-.003v7.523l.128-.127 1.81-1.8a1.135 1.135 0 011.602 0l1.81 1.8zm.17-9.772l.019.072c.323-.086.587-.298.74-.596a3.457 3.457 0 013.223-1.86c.335.015.65-.107.886-.344l-.053-.053.054.053c.236-.236.358-.551.343-.886a3.457 3.457 0 011.86-3.223 1.16 1.16 0 00.596-.74 1.163 1.163 0 00-.145-.94 3.457 3.457 0 010-3.721c.18-.282.232-.616.145-.939a1.163 1.163 0 00-.595-.74l-.035.066.035-.066a3.457 3.457 0 01-1.861-3.223 1.164 1.164 0 00-.343-.887 1.164 1.164 0 00-.886-.343h0a3.457 3.457 0 01-3.224-1.86l-.066.034.066-.035a1.164 1.164 0 00-.74-.595 1.164 1.164 0 00-.94.145l.041.063-.04-.063a3.457 3.457 0 01-3.722 0 1.164 1.164 0 00-.939-.146l.02.073-.02-.072a1.164 1.164 0 00-.74.595 3.456 3.456 0 01-3.223 1.861h0a1.165 1.165 0 00-.886.343 1.163 1.163 0 00-.343.887 3.458 3.458 0 01-1.861 3.223c-.297.153-.51.417-.596.74l.072.02-.072-.02c-.087.323-.035.657.146.94h0a3.457 3.457 0 010 3.72 1.163 1.163 0 00-.146.94c.086.323.298.586.596.74.325.168.615.386.865.64l.002.002.055.056v.001c.63.67.982 1.578.938 2.524-.015.334.107.65.344.886.236.237.552.359.886.344h0a3.456 3.456 0 013.223 1.86h0c.154.298.417.51.74.596l.02-.072-.02.072c.323.087.658.035.94-.146l-.041-.063.04.063a3.447 3.447 0 011.861-.543c.648 0 1.296.181 1.861.543.282.181.616.233.939.146l-.02-.072z" fill="#CB8734" stroke="#fff" stroke-width=".15"/><path d="M49.138 26.776l.053.053.053-.053 4.02-4.02a1.136 1.136 0 111.606 1.607l-4.876 4.876h0a1.132 1.132 0 01-1.606 0l-2.456-2.456a1.136 1.136 0 011.606-1.607l1.6 1.6zm-26.31 8.901h13.844a1.136 1.136 0 110 2.272H22.828a1.136 1.136 0 110-2.272z" fill="#CB8734" stroke="#fff" stroke-width=".15"/></svg>