<svg width="32" height="32" fill="none" xmlns="http://www.w3.org/2000/svg"><path fill="#fff" d="M0 0h32v32H0z"/><path d="M27.38 18.143a.393.393 0 00.67-.278v-1.018a.393.393 0 00-.786 0v1.018c0 .104.042.204.115.278z" fill="#2B2A28" stroke="#2B2A28" stroke-width=".1"/><path d="M5.371 28.05H26.63a1.422 1.422 0 001.421-1.421v-6.364a.393.393 0 00-.786 0v6.364a.636.636 0 01-.635.635H5.37a.636.636 0 01-.635-.635V5.37a.636.636 0 01.635-.635h21.26a.636.636 0 01.635.635v5.678a.393.393 0 10.786 0V5.371A1.422 1.422 0 0026.63 3.95H5.37a1.421 1.421 0 00-1.42 1.421V26.63a1.421 1.421 0 001.421 1.421z" fill="#2B2A28" stroke="#2B2A28" stroke-width=".1"/><path d="M27.38 14.725a.393.393 0 00.67-.278v-.998a.393.393 0 00-.786 0v.998c0 .104.042.204.115.278zm-10.15-.511h0a.394.394 0 00.279.67h0a.393.393 0 00.277-.115s0 0 0 0l6.035-6.034h0a.393.393 0 00-.555-.556h0l-6.035 6.035z" fill="#2B2A28" stroke="#2B2A28" stroke-width=".1"/><path d="M23.265 11.91a.393.393 0 00.67-.277V8.457a.393.393 0 00-.392-.393h-3.176a.393.393 0 000 .786h2.783v2.783c0 .104.041.204.115.278zM8.18 23.265h0a.393.393 0 00.277.67h0a.393.393 0 00.278-.114s0 0 0 0l6.034-6.035h0a.393.393 0 00-.555-.556h0l-6.035 6.035z" fill="#2B2A28" stroke="#2B2A28" stroke-width=".1"/><path d="M8.457 23.936h3.176a.393.393 0 000-.786H8.85v-2.783a.393.393 0 00-.786 0v3.176a.393.393 0 00.393.393z" fill="#2B2A28" stroke="#2B2A28" stroke-width=".1"/></svg>