<svg width="62" height="63" fill="none" xmlns="http://www.w3.org/2000/svg"><path opacity=".58" fill="#fff" d="M0 0h62v62H0z"/><path d="M59.07 21.602l-16.291 9.71a2.849 2.849 0 00-1.2 3.459 3.046 3.046 0 01-2.283.031l-2.108-.828a4.268 4.268 0 00-2.624-.166l-3.229.817a4.296 4.296 0 00-.368.11c-1.972-1.125-3.147-1.462-5.23-.657l-1.868.722a3.053 3.053 0 01-2.673-.223l-.625-.368a2.849 2.849 0 00-1.35-2.896l-16.29-9.71C1.639 20.832 0 21.761 0 23.266v18.185a3.6 3.6 0 001.749 3.078l7.112 4.24a2.841 2.841 0 003.848-.906l.304.18-.922 1.284a3.194 3.194 0 00.732 4.46c.71.509 1.573.7 2.42.55.13.858.592 1.612 1.296 2.118a3.186 3.186 0 002.422.549 3.194 3.194 0 004.478 2.435 3.2 3.2 0 005.49.917l2.39 1.415a3.198 3.198 0 004.813-2.468l.093.056a3.175 3.175 0 002.422.346 3.175 3.175 0 001.957-1.467 3.18 3.18 0 00.444-1.469 3.177 3.177 0 001.647.015 3.176 3.176 0 001.957-1.467c.254-.427.401-.897.438-1.378 1.45.614 3.17.075 3.994-1.315a3.202 3.202 0 00-.353-3.745l.936-.547a2.843 2.843 0 003.472.437l1.72-1.025a.908.908 0 00-.93-1.56l-1.72 1.024a1.026 1.026 0 01-1.217-.122c-.006-.052-7.64-12.81-7.64-12.81a1.028 1.028 0 01.357-1.404l16.29-9.71a.121.121 0 01.185.104v18.185c0 .62-.33 1.2-.862 1.518l-1.718 1.023a.908.908 0 10.93 1.56l1.717-1.023A3.6 3.6 0 0062 41.452V23.267c0-1.503-1.637-2.436-2.93-1.665zM35.01 35.57a2.465 2.465 0 011.514.096l2.112.83a4.853 4.853 0 003.838-.134l6.193 10.453-1.003.586a4.854 4.854 0 00-.524.358l-13.244-7.843a.908.908 0 00-1.371.782v.182a2.4 2.4 0 01-.709 1.71 2.401 2.401 0 01-1.709.708.203.203 0 01-.197-.197v-4.31c0-.94.526-1.778 1.33-2.198a.915.915 0 00.117-.057 2.56 2.56 0 01.424-.149l3.229-.817zM10.57 47.323a1.02 1.02 0 01-.779-.114L2.68 42.97a1.775 1.775 0 01-.863-1.517V23.267c0-.02 0-.07.062-.106a.123.123 0 01.061-.017c.03 0 .051.012.062.019l16.29 9.71c.485.289.645.919.358 1.404L11.2 46.851a1.02 1.02 0 01-.63.472zm4.34 5.23a1.37 1.37 0 01-1.028-.24 1.37 1.37 0 01-.557-.898 1.37 1.37 0 01.241-1.028l1.296-1.804c.031-.045.065-.086.1-.125a.908.908 0 00.078-.078 1.382 1.382 0 011.747-.114 1.38 1.38 0 01.316 1.925l-.003.003-1.293 1.802a1.37 1.37 0 01-.897.557zm2.69 2.427a1.37 1.37 0 01-.557-.897 1.37 1.37 0 01.24-1.027l1.296-1.805 1.43-1.992a1.37 1.37 0 011.124-.576 1.38 1.38 0 011.118 2.184l-2.727 3.797a1.381 1.381 0 01-1.924.316zm4.744 2.909A1.38 1.38 0 0121 55.724l.002-.004 2.724-3.794a1.38 1.38 0 012.481.581 1.37 1.37 0 01-.24 1.028l-2.726 3.797a1.37 1.37 0 01-.897.557zm3.297 1.58a1.37 1.37 0 01-.557-.897 1.37 1.37 0 01.243-1.031l.905-1.26a1.38 1.38 0 011.924-.315c.617.443.76 1.307.316 1.925l-.518.722a.697.697 0 00-.017.022l-.372.518a1.38 1.38 0 01-1.924.316zm21.882-7.77a1.381 1.381 0 01-1.89.484l-2.1-1.244-.003-.002-6.503-3.852a.908.908 0 10-.926 1.562l6.506 3.855a1.382 1.382 0 01-.361 2.524 1.37 1.37 0 01-1.046-.15l-1.712-1.014-.004-.002-.002-.002-4.79-2.838a.908.908 0 10-.927 1.563l4.791 2.838.003.002c.317.187.542.487.633.844.092.358.038.729-.15 1.046a1.37 1.37 0 01-.845.634 1.37 1.37 0 01-1.045-.15l-2.569-1.522-.005-.003L32.7 55.16a.908.908 0 00-.925 1.563l1.878 1.112.002.002a1.38 1.38 0 01.482 1.889 1.382 1.382 0 01-1.89.484l-2.249-1.332a3.2 3.2 0 00-.782-4.388 3.177 3.177 0 00-1.404-.566 3.174 3.174 0 00.188-1.71 3.175 3.175 0 00-1.29-2.079 3.187 3.187 0 00-2.421-.549 3.186 3.186 0 00-1.295-2.119 3.175 3.175 0 00-2.382-.557 3.17 3.17 0 00-1.813.966 3.201 3.201 0 00-4.518-1.194l-.644-.38 6.18-10.43.456.269a4.867 4.867 0 004.253.354l1.868-.723c1.117-.431 1.717-.452 2.845.097a4.289 4.289 0 00-1.144 2.92v4.31c0 1.11.902 2.013 2.01 2.014h.004c1.13 0 2.193-.44 2.993-1.239a4.214 4.214 0 001.04-1.702l12.65 7.49a.9.9 0 00.13.064.91.91 0 00.117.083c.654.387.871 1.235.484 1.89z" fill="#CB8734"/><path d="M20.589 24.665h20.822a3.423 3.423 0 003.418-3.42V8.859a3.423 3.423 0 00-3.419-3.42h-5.012V4c0-1.654-1.345-3-2.999-3H28.6a3.003 3.003 0 00-2.999 3v1.439H20.59a3.423 3.423 0 00-3.42 3.419v6.824a.908.908 0 101.817 0v-1.688a5.436 5.436 0 003.642 1.396h.71v.999a.908.908 0 101.817 0v-1h11.69v1a.908.908 0 101.816 0v-1h.71a5.436 5.436 0 003.642-1.395v7.252c0 .883-.72 1.602-1.603 1.602H20.59a1.604 1.604 0 01-1.602-1.602v-1.318a.908.908 0 10-1.817 0v1.318a3.423 3.423 0 003.419 3.419zM27.418 4c0-.653.53-1.184 1.183-1.184h4.798c.652 0 1.183.531 1.183 1.184v1.439h-7.164v-1.44zm11.954 9.573h-.71v-.999a.908.908 0 10-1.817 0v1h-11.69v-1a.908.908 0 10-1.816 0v1h-.711a3.645 3.645 0 01-3.641-3.642V8.858c0-.884.719-1.603 1.602-1.603h20.822c.883 0 1.602.72 1.602 1.603v1.074a3.645 3.645 0 01-3.641 3.641z" fill="#CB8734"/></svg>