<svg width="54" height="56" fill="none" xmlns="http://www.w3.org/2000/svg"><path d="M53.536 22.059C52.216 14.97 48.214 8.82 42.269 4.742 36.323.663 29.146-.856 22.06.464 14.97 1.784 8.82 5.786 4.742 11.732.663 17.677-.856 24.856.464 31.945a26.814 26.814 0 003.574 9.26c-.401 3.948-1.247 7.552-3.89 12.093a1.079 1.079 0 00.742 1.604c1.236.223 2.58.33 3.979.33 4.338 0 9.198-1.03 12.97-2.836a26.934 26.934 0 0014.103 1.144c7.088-1.32 13.239-5.322 17.317-11.267 4.078-5.946 5.597-13.125 4.277-20.214zm-21.99 29.36c-4.5.838-9.128.422-13.382-1.203a1.08 1.08 0 00-.872.045C13.2 52.33 7.357 53.397 2.79 52.98c2.45-4.67 3.107-8.49 3.433-11.937a1.078 1.078 0 00-.165-.682 24.666 24.666 0 01-3.472-8.812C.078 18.086 8.991 5.092 22.453 2.585c6.52-1.214 13.125.183 18.595 3.936a24.675 24.675 0 0110.367 15.933c2.507 13.464-6.406 26.458-19.868 28.965z" fill="#CB8734"/><path d="M20.941 37.26h3.455a1.08 1.08 0 001.08-1.078v-4.676a1.08 1.08 0 00-1.08-1.079h-3.455a.695.695 0 01-.685-.685V27.72h2.523a2.7 2.7 0 002.696-2.696V19.44a2.7 2.7 0 00-2.696-2.696h-6.66a2.7 2.7 0 00-2.696 2.696v10.302c0 4.146 3.373 7.518 7.518 7.518zm-5.36-17.82c0-.292.246-.539.538-.539h6.66c.292 0 .539.247.539.539v5.584a.546.546 0 01-.54.538h-3.601a1.08 1.08 0 00-1.08 1.08v3.1a2.846 2.846 0 002.844 2.843h2.377v2.518H20.94a5.367 5.367 0 01-5.36-5.361V19.44zm22.3 8.28a2.7 2.7 0 002.696-2.696V19.44a2.7 2.7 0 00-2.696-2.696h-6.66a2.7 2.7 0 00-2.699 2.696v10.302c0 4.146 3.374 7.518 7.521 7.518H39.5c.595 0 1.078-.483 1.078-1.078v-4.676c0-.596-.483-1.079-1.078-1.079h-3.456a.696.696 0 01-.688-.685V27.72h2.526zm-1.838 4.865h2.377v2.518h-2.377a5.368 5.368 0 01-5.364-5.361V19.44c0-.292.249-.539.542-.539h6.66c.292 0 .539.247.539.54v5.583a.546.546 0 01-.54.538h-3.604a1.08 1.08 0 00-1.079 1.08v3.1a2.848 2.848 0 002.846 2.843zM12.31 13.388c.275 0 .551-.106.762-.316l.003-.003a1.077 1.077 0 00-.002-1.524 1.08 1.08 0 00-1.527 1.527c.211.21.487.316.763.316z" fill="#CB8734"/><path d="M29.434 5.282A21.944 21.944 0 0015.572 8.37a1.079 1.079 0 101.13 1.838c7.787-4.788 17.749-3.61 24.226 2.865 7.68 7.681 7.68 20.18 0 27.86-7.681 7.679-20.177 7.679-27.856 0-6.474-6.474-7.653-16.438-2.868-24.23a1.08 1.08 0 00-1.838-1.129A21.964 21.964 0 005.28 29.437c.554 4.973 2.721 9.476 6.266 13.02 4.26 4.261 9.855 6.391 15.453 6.39 5.595 0 11.194-2.13 15.455-6.39a21.715 21.715 0 006.402-15.455 21.715 21.715 0 00-6.403-15.455 21.919 21.919 0 00-13.02-6.265z" fill="#CB8734"/></svg>