<svg width="29" height="32" fill="none" xmlns="http://www.w3.org/2000/svg"><path d="M22.747 5.99l-.398.016-3.763.142s0 0 0 0a.721.721 0 00-.698.75l4.859-.907zm0 0l-.309-.25c-4.804-3.913-11.895-3.848-16.633.438a12.787 12.787 0 00-3.848 12.498v.002a.726.726 0 01-.531.873h0l-.003.001a.72.72 0 01-.87-.532h0a14.236 14.236 0 014.28-13.914h0a14.11 14.11 0 0110.255-3.66h0c3.065.154 5.93 1.256 8.255 3.16l.258.21-.013-.332-.136-3.582h0A.721.721 0 0124.15.15h0a.725.725 0 01.75.697h0l.15-.005M22.748 5.99l.683-1.701-.128-3.383a.875.875 0 011.749-.065m0 0L24.9.85l.214 5.71M25.05.842l.214 5.712m0 0h-.15v.003m.15-.003l-.15.006v-.003m.15-.003v.106c0 .473-.37.855-.842.874l-5.778.214h-.032a.877.877 0 01-.875-.842l6.679.478m.698-.825v.101a.723.723 0 01-.698.724m0 0h0l.006.15-.007-.15m0 0h0m0 0l-5.773.214h0-.001 0-.001 0-.001 0-.001 0-.001 0-.001 0-.001 0-.001 0-.001 0-.001 0-.001 0-.001 0-.001 0-.001 0-.001 0-.001 0-.001 0-.001 0-.001 0-.001 0-.001 0-.001 0-.001 0-.001 0-.001 0-.001 0-.001 0-.001 0-.001 0-.001 0a.727.727 0 01-.725-.698l6.528.484zm2.627 5.658h0a.726.726 0 01.532-.874.725.725 0 01.874.531 14.232 14.232 0 01-4.282 13.914 14.145 14.145 0 01-10.254 3.66h0a14.134 14.134 0 01-8.223-3.134l-.276-.223.032.353.31 3.504h0a.723.723 0 01-.654.79h-.012l-.01.003a.723.723 0 01-.76-.657h0L3.8 25.15h0a.723.723 0 01.654-.79s0 0 0 0l5.758-.517h0a.719.719 0 01.789.654.723.723 0 01-.655.79s0 0 0 0l-3.808.343-.361.032.279.232a12.764 12.764 0 008.172 2.943 12.74 12.74 0 008.566-3.296h0a12.773 12.773 0 003.847-12.499z" fill="#2B2A28" stroke="#FFFBF7" stroke-width=".3"/></svg>