<svg width="62" height="60" fill="none" xmlns="http://www.w3.org/2000/svg"><path d="M58.5 3H58V1a1 1 0 00-1-1h-4a1 1 0 00-1 1v2h-6V1a1 1 0 00-1-1h-4a1 1 0 00-1 1v2h-6V1a1 1 0 00-1-1h-4a1 1 0 00-1 1v2h-6V1a1 1 0 00-1-1h-4a1 1 0 00-1 1v2h-6V1a1 1 0 00-1-1H5a1 1 0 00-1 1v2h-.5A3.504 3.504 0 000 6.5v44A3.504 3.504 0 003.5 54h12.819a20.961 20.961 0 0029.362 0H58.5a3.504 3.504 0 003.5-3.5v-44A3.504 3.504 0 0058.5 3zM54 2h2v4h-2V2zM42 2h2v4h-2V2zM30 2h2v4h-2V2zM18 2h2v4h-2V2zM6 2h2v4H6V2zm25 56c-10.476 0-19-8.524-19-19s8.524-19 19-19 19 8.524 19 19-8.524 19-19 19zm29-7.5a1.501 1.501 0 01-1.5 1.5H47.481A20.903 20.903 0 0052 39c0-11.58-9.42-21-21-21s-21 9.42-21 21a20.903 20.903 0 004.519 13H3.5A1.501 1.501 0 012 50.5V11h58v39.5zM60 9H2V6.5A1.501 1.501 0 013.5 5H4v2a1 1 0 001 1h4a1 1 0 001-1V5h6v2a1 1 0 001 1h4a1 1 0 001-1V5h6v2a1 1 0 001 1h4a1 1 0 001-1V5h6v2a1 1 0 001 1h4a1 1 0 001-1V5h6v2a1 1 0 001 1h4a1 1 0 001-1V5h.5A1.501 1.501 0 0160 6.5V9z" fill="#CB8734"/><path d="M31 22c-9.374 0-17 7.626-17 17 0 9.374 7.626 17 17 17 9.374 0 17-7.626 17-17 0-9.374-7.626-17-17-17zm0 32a15 15 0 1115-15 15.017 15.017 0 01-15 15z" fill="#CB8734"/><path d="M32 38.586V29a1 1 0 00-2 0v10a1.001 1.001 0 00.293.707l4 4a1 1 0 101.414-1.414L32 38.586z" fill="#CB8734"/></svg>