<svg width="495" height="54" viewBox="0 0 495 54" fill="none" xmlns="http://www.w3.org/2000/svg">
<path d="M272.825 3.9V5.33H270.264V13H268.769V5.33H266.195V3.9H272.825ZM276.78 13.169C275.826 13.169 275.016 12.8397 274.349 12.181C273.681 11.5223 273.348 10.712 273.348 9.75C273.348 8.788 273.681 7.97767 274.349 7.319C275.016 6.66033 275.826 6.331 276.78 6.331C277.742 6.331 278.552 6.66033 279.211 7.319C279.878 7.97767 280.212 8.788 280.212 9.75C280.212 10.712 279.878 11.5223 279.211 12.181C278.552 12.8397 277.742 13.169 276.78 13.169ZM275.337 11.219C275.727 11.609 276.208 11.804 276.78 11.804C277.352 11.804 277.833 11.609 278.223 11.219C278.613 10.829 278.808 10.3393 278.808 9.75C278.808 9.16067 278.613 8.671 278.223 8.281C277.833 7.891 277.352 7.696 276.78 7.696C276.208 7.696 275.727 7.891 275.337 8.281C274.947 8.671 274.752 9.16067 274.752 9.75C274.752 10.3393 274.947 10.829 275.337 11.219ZM288.267 13H286.59L283.925 9.997V13H282.521V3.9H283.925V9.373L286.447 6.5H288.163L285.303 9.685L288.267 13ZM294.879 6.5H296.283V13H294.879V12.064C294.35 12.8007 293.592 13.169 292.604 13.169C291.711 13.169 290.949 12.8397 290.316 12.181C289.683 11.5137 289.367 10.7033 289.367 9.75C289.367 8.788 289.683 7.97767 290.316 7.319C290.949 6.66033 291.711 6.331 292.604 6.331C293.592 6.331 294.35 6.695 294.879 7.423V6.5ZM291.356 11.245C291.746 11.635 292.236 11.83 292.825 11.83C293.414 11.83 293.904 11.635 294.294 11.245C294.684 10.8463 294.879 10.348 294.879 9.75C294.879 9.152 294.684 8.658 294.294 8.268C293.904 7.86933 293.414 7.67 292.825 7.67C292.236 7.67 291.746 7.86933 291.356 8.268C290.966 8.658 290.771 9.152 290.771 9.75C290.771 10.348 290.966 10.8463 291.356 11.245ZM300.363 7.592C300.719 6.786 301.386 6.383 302.365 6.383V7.904C301.828 7.86933 301.36 7.99933 300.961 8.294C300.563 8.58 300.363 9.05667 300.363 9.724V13H298.959V6.5H300.363V7.592ZM308.837 13.169C307.467 13.169 306.332 12.7183 305.431 11.817C304.529 10.907 304.079 9.78467 304.079 8.45C304.079 7.11533 304.529 5.99733 305.431 5.096C306.332 4.186 307.467 3.731 308.837 3.731C309.66 3.731 310.418 3.926 311.112 4.316C311.814 4.706 312.36 5.23467 312.75 5.902L311.45 6.656C311.207 6.20533 310.852 5.85 310.384 5.59C309.924 5.32133 309.409 5.187 308.837 5.187C307.866 5.187 307.077 5.49467 306.471 6.11C305.873 6.72533 305.574 7.50533 305.574 8.45C305.574 9.39467 305.873 10.1747 306.471 10.79C307.077 11.4053 307.866 11.713 308.837 11.713C309.409 11.713 309.929 11.583 310.397 11.323C310.865 11.0543 311.216 10.6947 311.45 10.244L312.75 10.985C312.368 11.6523 311.827 12.1853 311.125 12.584C310.431 12.974 309.669 13.169 308.837 13.169ZM317.996 13.169C317.043 13.169 316.232 12.8397 315.565 12.181C314.898 11.5223 314.564 10.712 314.564 9.75C314.564 8.788 314.898 7.97767 315.565 7.319C316.232 6.66033 317.043 6.331 317.996 6.331C318.958 6.331 319.768 6.66033 320.427 7.319C321.094 7.97767 321.428 8.788 321.428 9.75C321.428 10.712 321.094 11.5223 320.427 12.181C319.768 12.8397 318.958 13.169 317.996 13.169ZM316.553 11.219C316.943 11.609 317.424 11.804 317.996 11.804C318.568 11.804 319.049 11.609 319.439 11.219C319.829 10.829 320.024 10.3393 320.024 9.75C320.024 9.16067 319.829 8.671 319.439 8.281C319.049 7.891 318.568 7.696 317.996 7.696C317.424 7.696 316.943 7.891 316.553 8.281C316.163 8.671 315.968 9.16067 315.968 9.75C315.968 10.3393 316.163 10.829 316.553 11.219ZM330.836 6.331C331.572 6.331 332.166 6.56933 332.617 7.046C333.067 7.52267 333.293 8.164 333.293 8.97V13H331.889V9.061C331.889 8.61033 331.776 8.26367 331.551 8.021C331.325 7.76967 331.018 7.644 330.628 7.644C330.194 7.644 329.848 7.787 329.588 8.073C329.336 8.359 329.211 8.788 329.211 9.36V13H327.807V9.061C327.807 8.61033 327.698 8.26367 327.482 8.021C327.274 7.76967 326.975 7.644 326.585 7.644C326.16 7.644 325.813 7.79133 325.545 8.086C325.276 8.372 325.142 8.79667 325.142 9.36V13H323.738V6.5H325.142V7.28C325.558 6.64733 326.177 6.331 327.001 6.331C327.833 6.331 328.448 6.67333 328.847 7.358C329.28 6.67333 329.943 6.331 330.836 6.331ZM339.514 6.331C340.407 6.331 341.17 6.66467 341.802 7.332C342.435 7.99067 342.751 8.79667 342.751 9.75C342.751 10.712 342.435 11.5223 341.802 12.181C341.17 12.8397 340.407 13.169 339.514 13.169C338.526 13.169 337.768 12.805 337.239 12.077V15.6H335.835V6.5H337.239V7.436C337.768 6.69933 338.526 6.331 339.514 6.331ZM337.824 11.245C338.214 11.635 338.704 11.83 339.293 11.83C339.883 11.83 340.372 11.635 340.762 11.245C341.152 10.8463 341.347 10.348 341.347 9.75C341.347 9.152 341.152 8.658 340.762 8.268C340.372 7.86933 339.883 7.67 339.293 7.67C338.704 7.67 338.214 7.86933 337.824 8.268C337.434 8.658 337.239 9.152 337.239 9.75C337.239 10.348 337.434 10.8463 337.824 11.245ZM350.212 6.5H351.616V13H350.212V12.064C349.683 12.8007 348.925 13.169 347.937 13.169C347.044 13.169 346.281 12.8397 345.649 12.181C345.016 11.5137 344.7 10.7033 344.7 9.75C344.7 8.788 345.016 7.97767 345.649 7.319C346.281 6.66033 347.044 6.331 347.937 6.331C348.925 6.331 349.683 6.695 350.212 7.423V6.5ZM346.689 11.245C347.079 11.635 347.568 11.83 348.158 11.83C348.747 11.83 349.237 11.635 349.627 11.245C350.017 10.8463 350.212 10.348 350.212 9.75C350.212 9.152 350.017 8.658 349.627 8.268C349.237 7.86933 348.747 7.67 348.158 7.67C347.568 7.67 347.079 7.86933 346.689 8.268C346.299 8.658 346.104 9.152 346.104 9.75C346.104 10.348 346.299 10.8463 346.689 11.245ZM357.711 6.331C358.457 6.331 359.059 6.56933 359.518 7.046C359.978 7.52267 360.207 8.177 360.207 9.009V13H358.803V9.152C358.803 8.66667 358.673 8.294 358.413 8.034C358.153 7.774 357.798 7.644 357.347 7.644C356.853 7.644 356.455 7.8 356.151 8.112C355.848 8.41533 355.696 8.88333 355.696 9.516V13H354.292V6.5H355.696V7.332C356.121 6.66467 356.793 6.331 357.711 6.331ZM367.013 6.5H368.508L366.012 13.208C365.388 14.8893 364.331 15.6867 362.84 15.6V14.287C363.282 14.313 363.637 14.2177 363.906 14.001C364.175 13.793 364.396 13.4637 364.569 13.013L364.634 12.883L361.878 6.5H363.412L365.349 11.219L367.013 6.5ZM374.807 9.724V8.372H379.617V9.724H374.807ZM272.604 24.5V31H271.2V25.826H268.223V31H266.819V24.5H272.604ZM278.952 24.331C279.845 24.331 280.607 24.6647 281.24 25.332C281.873 25.9907 282.189 26.7967 282.189 27.75C282.189 28.712 281.873 29.5223 281.24 30.181C280.607 30.8397 279.845 31.169 278.952 31.169C277.964 31.169 277.206 30.805 276.677 30.077V33.6H275.273V24.5H276.677V25.436C277.206 24.6993 277.964 24.331 278.952 24.331ZM277.262 29.245C277.652 29.635 278.142 29.83 278.731 29.83C279.32 29.83 279.81 29.635 280.2 29.245C280.59 28.8463 280.785 28.348 280.785 27.75C280.785 27.152 280.59 26.658 280.2 26.268C279.81 25.8693 279.32 25.67 278.731 25.67C278.142 25.67 277.652 25.8693 277.262 26.268C276.872 26.658 276.677 27.152 276.677 27.75C276.677 28.348 276.872 28.8463 277.262 29.245ZM287.57 31.169C286.616 31.169 285.806 30.8397 285.139 30.181C284.471 29.5223 284.138 28.712 284.138 27.75C284.138 26.788 284.471 25.9777 285.139 25.319C285.806 24.6603 286.616 24.331 287.57 24.331C288.532 24.331 289.342 24.6603 290.001 25.319C290.668 25.9777 291.002 26.788 291.002 27.75C291.002 28.712 290.668 29.5223 290.001 30.181C289.342 30.8397 288.532 31.169 287.57 31.169ZM286.127 29.219C286.517 29.609 286.998 29.804 287.57 29.804C288.142 29.804 288.623 29.609 289.013 29.219C289.403 28.829 289.598 28.3393 289.598 27.75C289.598 27.1607 289.403 26.671 289.013 26.281C288.623 25.891 288.142 25.696 287.57 25.696C286.998 25.696 286.517 25.891 286.127 26.281C285.737 26.671 285.542 27.1607 285.542 27.75C285.542 28.3393 285.737 28.829 286.127 29.219ZM298.017 24.5H299.096V31H297.718V26.866L294.39 31H293.311V24.5H294.689V28.621L298.017 24.5ZM305.418 27.672C306.111 27.984 306.458 28.4997 306.458 29.219C306.458 29.7737 306.233 30.2373 305.782 30.61C305.331 30.9827 304.703 31.169 303.897 31.169C302.588 31.169 301.704 30.649 301.245 29.609L302.389 28.933C302.623 29.583 303.13 29.908 303.91 29.908C304.274 29.908 304.56 29.8343 304.768 29.687C304.976 29.531 305.08 29.3273 305.08 29.076C305.08 28.8507 304.998 28.673 304.833 28.543C304.668 28.4043 304.439 28.335 304.144 28.335H303.221V27.1H303.91C304.196 27.1 304.417 27.035 304.573 26.905C304.738 26.7663 304.82 26.58 304.82 26.346C304.82 26.1207 304.729 25.9387 304.547 25.8C304.365 25.6527 304.122 25.579 303.819 25.579C303.169 25.579 302.718 25.865 302.467 26.437L301.323 25.787C301.808 24.8163 302.632 24.331 303.793 24.331C304.521 24.331 305.097 24.5173 305.522 24.89C305.955 25.254 306.172 25.7003 306.172 26.229C306.172 26.879 305.921 27.36 305.418 27.672ZM313.143 27.659C313.784 27.9537 314.105 28.452 314.105 29.154C314.105 29.7 313.919 30.1463 313.546 30.493C313.182 30.831 312.658 31 311.973 31H308.645V24.5H311.713C312.38 24.5 312.896 24.669 313.26 25.007C313.633 25.3363 313.819 25.7653 313.819 26.294C313.819 26.9093 313.594 27.3643 313.143 27.659ZM311.609 25.696H309.984V27.139H311.609C312.181 27.139 312.467 26.8963 312.467 26.411C312.467 25.9343 312.181 25.696 311.609 25.696ZM311.843 29.778C312.432 29.778 312.727 29.5223 312.727 29.011C312.727 28.7857 312.649 28.6123 312.493 28.491C312.337 28.361 312.12 28.296 311.843 28.296H309.984V29.778H311.843ZM319.355 31.169C318.401 31.169 317.591 30.8397 316.924 30.181C316.256 29.5223 315.923 28.712 315.923 27.75C315.923 26.788 316.256 25.9777 316.924 25.319C317.591 24.6603 318.401 24.331 319.355 24.331C320.317 24.331 321.127 24.6603 321.786 25.319C322.453 25.9777 322.787 26.788 322.787 27.75C322.787 28.712 322.453 29.5223 321.786 30.181C321.127 30.8397 320.317 31.169 319.355 31.169ZM317.912 29.219C318.302 29.609 318.783 29.804 319.355 29.804C319.927 29.804 320.408 29.609 320.798 29.219C321.188 28.829 321.383 28.3393 321.383 27.75C321.383 27.1607 321.188 26.671 320.798 26.281C320.408 25.891 319.927 25.696 319.355 25.696C318.783 25.696 318.302 25.891 317.912 26.281C317.522 26.671 317.327 27.1607 317.327 27.75C317.327 28.3393 317.522 28.829 317.912 29.219ZM330.562 29.674H331.433V32.742H330.055V31H325.596V32.742H324.218V29.674H325.011C325.41 29.1107 325.609 28.3263 325.609 27.321V24.5H330.562V29.674ZM326.558 29.674H329.184V25.787H326.987V27.321C326.987 28.2483 326.844 29.0327 326.558 29.674ZM336.428 31.169C335.448 31.169 334.629 30.8397 333.971 30.181C333.321 29.5223 332.996 28.712 332.996 27.75C332.996 26.7793 333.321 25.969 333.971 25.319C334.629 24.6603 335.448 24.331 336.428 24.331C337.06 24.331 337.637 24.4827 338.157 24.786C338.677 25.0893 339.067 25.4967 339.327 26.008L338.118 26.71C337.97 26.398 337.745 26.1553 337.442 25.982C337.147 25.8 336.805 25.709 336.415 25.709C335.843 25.709 335.362 25.904 334.972 26.294C334.59 26.684 334.4 27.1693 334.4 27.75C334.4 28.3307 334.59 28.816 334.972 29.206C335.362 29.596 335.843 29.791 336.415 29.791C336.796 29.791 337.138 29.7 337.442 29.518C337.754 29.336 337.988 29.0933 338.144 28.79L339.353 29.479C339.075 29.999 338.677 30.4107 338.157 30.714C337.637 31.0173 337.06 31.169 336.428 31.169ZM346.31 24.5V25.852H344.191V31H342.787V25.852H340.655V24.5H346.31ZM352.798 27.659C353.439 27.9537 353.76 28.452 353.76 29.154C353.76 29.7 353.574 30.1463 353.201 30.493C352.837 30.831 352.313 31 351.628 31H348.3V24.5H351.368C352.035 24.5 352.551 24.669 352.915 25.007C353.288 25.3363 353.474 25.7653 353.474 26.294C353.474 26.9093 353.249 27.3643 352.798 27.659ZM351.264 25.696H349.639V27.139H351.264C351.836 27.139 352.122 26.8963 352.122 26.411C352.122 25.9343 351.836 25.696 351.264 25.696ZM351.498 29.778C352.087 29.778 352.382 29.5223 352.382 29.011C352.382 28.7857 352.304 28.6123 352.148 28.491C351.992 28.361 351.775 28.296 351.498 28.296H349.639V29.778H351.498ZM357.047 28.348C357.151 28.842 357.389 29.2233 357.762 29.492C358.134 29.752 358.589 29.882 359.127 29.882C359.872 29.882 360.431 29.6133 360.804 29.076L361.961 29.752C361.319 30.6967 360.37 31.169 359.114 31.169C358.056 31.169 357.203 30.8483 356.553 30.207C355.903 29.557 355.578 28.738 355.578 27.75C355.578 26.7793 355.898 25.969 356.54 25.319C357.181 24.6603 358.004 24.331 359.01 24.331C359.963 24.331 360.743 24.6647 361.35 25.332C361.965 25.9993 362.273 26.8097 362.273 27.763C362.273 27.9103 362.255 28.1053 362.221 28.348H357.047ZM357.034 27.204H360.856C360.76 26.6753 360.539 26.2767 360.193 26.008C359.855 25.7393 359.456 25.605 358.997 25.605C358.477 25.605 358.043 25.748 357.697 26.034C357.35 26.32 357.129 26.71 357.034 27.204ZM368.929 24.5H370.333V31H368.929V28.413H365.952V31H364.548V24.5H365.952V27.087H368.929V24.5ZM377.383 24.5H378.787V31H377.383V28.413H374.406V31H373.002V24.5H374.406V27.087H377.383V24.5ZM384.524 31.169C383.571 31.169 382.76 30.8397 382.093 30.181C381.426 29.5223 381.092 28.712 381.092 27.75C381.092 26.788 381.426 25.9777 382.093 25.319C382.76 24.6603 383.571 24.331 384.524 24.331C385.486 24.331 386.296 24.6603 386.955 25.319C387.622 25.9777 387.956 26.788 387.956 27.75C387.956 28.712 387.622 29.5223 386.955 30.181C386.296 30.8397 385.486 31.169 384.524 31.169ZM383.081 29.219C383.471 29.609 383.952 29.804 384.524 29.804C385.096 29.804 385.577 29.609 385.967 29.219C386.357 28.829 386.552 28.3393 386.552 27.75C386.552 27.1607 386.357 26.671 385.967 26.281C385.577 25.891 385.096 25.696 384.524 25.696C383.952 25.696 383.471 25.891 383.081 26.281C382.691 26.671 382.496 27.1607 382.496 27.75C382.496 28.3393 382.691 28.829 383.081 29.219ZM390.357 27.724V26.372H395.167V27.724H390.357ZM401.001 31.169C400.021 31.169 399.202 30.8397 398.544 30.181C397.894 29.5223 397.569 28.712 397.569 27.75C397.569 26.7793 397.894 25.969 398.544 25.319C399.202 24.6603 400.021 24.331 401.001 24.331C401.633 24.331 402.21 24.4827 402.73 24.786C403.25 25.0893 403.64 25.4967 403.9 26.008L402.691 26.71C402.543 26.398 402.318 26.1553 402.015 25.982C401.72 25.8 401.378 25.709 400.988 25.709C400.416 25.709 399.935 25.904 399.545 26.294C399.163 26.684 398.973 27.1693 398.973 27.75C398.973 28.3307 399.163 28.816 399.545 29.206C399.935 29.596 400.416 29.791 400.988 29.791C401.369 29.791 401.711 29.7 402.015 29.518C402.327 29.336 402.561 29.0933 402.717 28.79L403.926 29.479C403.648 29.999 403.25 30.4107 402.73 30.714C402.21 31.0173 401.633 31.169 401.001 31.169ZM410.883 24.5V25.852H408.764V31H407.36V25.852H405.228V24.5H410.883ZM416.552 24.331C417.445 24.331 418.207 24.6647 418.84 25.332C419.473 25.9907 419.789 26.7967 419.789 27.75C419.789 28.712 419.473 29.5223 418.84 30.181C418.207 30.8397 417.445 31.169 416.552 31.169C415.564 31.169 414.806 30.805 414.277 30.077V33.6H412.873V24.5H414.277V25.436C414.806 24.6993 415.564 24.331 416.552 24.331ZM414.862 29.245C415.252 29.635 415.742 29.83 416.331 29.83C416.92 29.83 417.41 29.635 417.8 29.245C418.19 28.8463 418.385 28.348 418.385 27.75C418.385 27.152 418.19 26.658 417.8 26.268C417.41 25.8693 416.92 25.67 416.331 25.67C415.742 25.67 415.252 25.8693 414.862 26.268C414.472 26.658 414.277 27.152 414.277 27.75C414.277 28.348 414.472 28.8463 414.862 29.245ZM425.169 31.169C424.216 31.169 423.406 30.8397 422.738 30.181C422.071 29.5223 421.737 28.712 421.737 27.75C421.737 26.788 422.071 25.9777 422.738 25.319C423.406 24.6603 424.216 24.331 425.169 24.331C426.131 24.331 426.942 24.6603 427.6 25.319C428.268 25.9777 428.601 26.788 428.601 27.75C428.601 28.712 428.268 29.5223 427.6 30.181C426.942 30.8397 426.131 31.169 425.169 31.169ZM423.726 29.219C424.116 29.609 424.597 29.804 425.169 29.804C425.741 29.804 426.222 29.609 426.612 29.219C427.002 28.829 427.197 28.3393 427.197 27.75C427.197 27.1607 427.002 26.671 426.612 26.281C426.222 25.891 425.741 25.696 425.169 25.696C424.597 25.696 424.116 25.891 423.726 26.281C423.336 26.671 423.141 27.1607 423.141 27.75C423.141 28.3393 423.336 28.829 423.726 29.219ZM435.617 24.5H436.696V31H435.318V26.866L431.99 31H430.911V24.5H432.289V28.621L435.617 24.5ZM444.331 24.5V25.852H442.212V31H440.808V25.852H438.676V24.5H444.331ZM447.172 28.348C447.276 28.842 447.515 29.2233 447.887 29.492C448.26 29.752 448.715 29.882 449.252 29.882C449.998 29.882 450.557 29.6133 450.929 29.076L452.086 29.752C451.445 30.6967 450.496 31.169 449.239 31.169C448.182 31.169 447.328 30.8483 446.678 30.207C446.028 29.557 445.703 28.738 445.703 27.75C445.703 26.7793 446.024 25.969 446.665 25.319C447.307 24.6603 448.13 24.331 449.135 24.331C450.089 24.331 450.869 24.6647 451.475 25.332C452.091 25.9993 452.398 26.8097 452.398 27.763C452.398 27.9103 452.381 28.1053 452.346 28.348H447.172ZM447.159 27.204H450.981C450.886 26.6753 450.665 26.2767 450.318 26.008C449.98 25.7393 449.582 25.605 449.122 25.605C448.602 25.605 448.169 25.748 447.822 26.034C447.476 26.32 447.255 26.71 447.159 27.204ZM459.906 24.5V31H458.502V25.852H456.331V28.27C456.331 29.3013 456.105 30.0337 455.655 30.467C455.204 30.9003 454.563 31.078 453.731 31V29.687C454.129 29.7563 454.428 29.674 454.628 29.44C454.827 29.206 454.927 28.7943 454.927 28.205V24.5H459.906ZM465.416 26.71C466.109 26.71 466.677 26.9093 467.119 27.308C467.561 27.698 467.782 28.2137 467.782 28.855C467.782 29.4877 467.561 30.0033 467.119 30.402C466.677 30.8007 466.109 31 465.416 31H462.582V24.5H463.986V26.71H465.416ZM465.429 29.739C465.706 29.739 465.936 29.6567 466.118 29.492C466.308 29.3273 466.404 29.115 466.404 28.855C466.404 28.5863 466.308 28.374 466.118 28.218C465.936 28.0533 465.706 27.971 465.429 27.971H463.986V29.739H465.429ZM474.35 24.5H475.754V31H474.35V28.413H471.373V31H469.969V24.5H471.373V27.087H474.35V24.5ZM483.571 24.5H484.975V31H483.571V30.064C483.043 30.8007 482.284 31.169 481.296 31.169C480.404 31.169 479.641 30.8397 479.008 30.181C478.376 29.5137 478.059 28.7033 478.059 27.75C478.059 26.788 478.376 25.9777 479.008 25.319C479.641 24.6603 480.404 24.331 481.296 24.331C482.284 24.331 483.043 24.695 483.571 25.423V24.5ZM480.048 29.245C480.438 29.635 480.928 29.83 481.517 29.83C482.107 29.83 482.596 29.635 482.986 29.245C483.376 28.8463 483.571 28.348 483.571 27.75C483.571 27.152 483.376 26.658 482.986 26.268C482.596 25.8693 482.107 25.67 481.517 25.67C480.928 25.67 480.438 25.8693 480.048 26.268C479.658 26.658 479.463 27.152 479.463 27.75C479.463 28.348 479.658 28.8463 480.048 29.245ZM492.683 24.5V31H491.305V28.816H490.525L488.874 31H487.223L488.978 28.686C488.527 28.5387 488.163 28.2787 487.886 27.906C487.617 27.5333 487.483 27.1173 487.483 26.658C487.483 26.06 487.695 25.553 488.12 25.137C488.553 24.7123 489.108 24.5 489.784 24.5H492.683ZM489.862 27.607H491.305V25.774H489.862C489.576 25.774 489.338 25.8563 489.147 26.021C488.956 26.1857 488.861 26.411 488.861 26.697C488.861 26.9743 488.956 27.1953 489.147 27.36C489.338 27.5247 489.576 27.607 489.862 27.607ZM272.565 49H270.888L268.223 45.997V49H266.819V42.5H268.223V45.373L270.745 42.5H272.461L269.601 45.685L272.565 49ZM277.097 49.169C276.144 49.169 275.333 48.8397 274.666 48.181C273.999 47.5223 273.665 46.712 273.665 45.75C273.665 44.788 273.999 43.9777 274.666 43.319C275.333 42.6603 276.144 42.331 277.097 42.331C278.059 42.331 278.869 42.6603 279.528 43.319C280.195 43.9777 280.529 44.788 280.529 45.75C280.529 46.712 280.195 47.5223 279.528 48.181C278.869 48.8397 278.059 49.169 277.097 49.169ZM275.654 47.219C276.044 47.609 276.525 47.804 277.097 47.804C277.669 47.804 278.15 47.609 278.54 47.219C278.93 46.829 279.125 46.3393 279.125 45.75C279.125 45.1607 278.93 44.671 278.54 44.281C278.15 43.891 277.669 43.696 277.097 43.696C276.525 43.696 276.044 43.891 275.654 44.281C275.264 44.671 275.069 45.1607 275.069 45.75C275.069 46.3393 275.264 46.829 275.654 47.219ZM289.468 42.5V49H288.103V44.723L286.231 47.7H286.062L284.203 44.736V49H282.838V42.5H284.268L286.153 45.503L288.038 42.5H289.468ZM297.915 42.5V49H296.511V43.826H293.534V49H292.13V42.5H297.915ZM305.732 42.5H307.136V49H305.732V48.064C305.204 48.8007 304.445 49.169 303.457 49.169C302.565 49.169 301.802 48.8397 301.169 48.181C300.537 47.5137 300.22 46.7033 300.22 45.75C300.22 44.788 300.537 43.9777 301.169 43.319C301.802 42.6603 302.565 42.331 303.457 42.331C304.445 42.331 305.204 42.695 305.732 43.423V42.5ZM302.209 47.245C302.599 47.635 303.089 47.83 303.678 47.83C304.268 47.83 304.757 47.635 305.147 47.245C305.537 46.8463 305.732 46.348 305.732 45.75C305.732 45.152 305.537 44.658 305.147 44.268C304.757 43.8693 304.268 43.67 303.678 43.67C303.089 43.67 302.599 43.8693 302.209 44.268C301.819 44.658 301.624 45.152 301.624 45.75C301.624 46.348 301.819 46.8463 302.209 47.245ZM314.194 42.5H315.598V49H314.194V46.413H311.217V49H309.813V42.5H311.217V45.087H314.194V42.5ZM322.973 42.5H324.052V49H322.674V44.866L319.346 49H318.267V42.5H319.645V46.621L322.973 42.5ZM331.752 42.5V49H330.374V46.816H329.594L327.943 49H326.292L328.047 46.686C327.596 46.5387 327.232 46.2787 326.955 45.906C326.686 45.5333 326.552 45.1173 326.552 44.658C326.552 44.06 326.764 43.553 327.189 43.137C327.622 42.7123 328.177 42.5 328.853 42.5H331.752ZM328.931 45.607H330.374V43.774H328.931C328.645 43.774 328.407 43.8563 328.216 44.021C328.025 44.1857 327.93 44.411 327.93 44.697C327.93 44.9743 328.025 45.1953 328.216 45.36C328.407 45.5247 328.645 45.607 328.931 45.607Z" fill="#2B2A28"/>
<path d="M135.41 42.3823C134.543 42.3823 133.825 42.097 133.254 41.5264C132.684 40.9453 132.409 40.2373 132.409 39.3814C132.409 38.5256 132.684 37.807 133.254 37.2364C133.825 36.6658 134.543 36.3806 135.41 36.3806C135.928 36.3806 136.414 36.4968 136.857 36.7504C137.301 36.9934 137.65 37.321 137.904 37.7436L136.625 38.4727C136.519 38.272 136.35 38.1135 136.139 37.9972C135.917 37.8704 135.674 37.8176 135.41 37.8176C134.945 37.8176 134.575 37.955 134.29 38.2508C134.015 38.5361 133.867 38.9165 133.867 39.3814C133.867 39.8464 134.015 40.2268 134.29 40.5121C134.575 40.7974 134.945 40.9453 135.41 40.9453C135.674 40.9453 135.917 40.8819 136.139 40.7657C136.35 40.6494 136.519 40.4804 136.625 40.2796L137.904 41.0193C137.65 41.4419 137.301 41.7695 136.857 42.0125C136.414 42.2555 135.938 42.3823 135.41 42.3823ZM154.25 41.5159C153.669 42.0865 152.95 42.3823 152.105 42.3823C151.26 42.3823 150.552 42.0865 149.97 41.5159C149.379 40.9347 149.093 40.2268 149.093 39.3814C149.093 38.5361 149.379 37.8282 149.97 37.247C150.552 36.6658 151.26 36.3806 152.105 36.3806C152.95 36.3806 153.669 36.6658 154.25 37.247C154.831 37.8282 155.127 38.5361 155.127 39.3814C155.127 40.2268 154.831 40.9347 154.25 41.5159ZM150.995 40.5015C151.291 40.7974 151.661 40.9453 152.105 40.9453C152.549 40.9453 152.919 40.7974 153.214 40.5015C153.51 40.2056 153.658 39.8358 153.658 39.3814C153.658 38.9271 153.51 38.5467 153.214 38.2614C152.919 37.9655 152.549 37.8176 152.105 37.8176C151.661 37.8176 151.291 37.9655 150.995 38.2614C150.7 38.5467 150.552 38.9271 150.552 39.3814C150.552 39.8358 150.7 40.2056 150.995 40.5015ZM172.699 36.4968V42.2555H171.241V39.1595L169.836 41.463H169.688L168.303 39.1701V42.2555H166.824V36.4968H168.303L169.762 38.9588L171.241 36.4968H172.699ZM186.869 36.4968C187.45 36.4968 187.936 36.687 188.337 37.0674C188.728 37.4478 188.929 37.9338 188.929 38.515C188.929 39.1067 188.728 39.5822 188.337 39.9626C187.936 40.343 187.45 40.5332 186.869 40.5332H186.108V42.2555H184.629V36.4968H186.869ZM186.869 39.1278C187.038 39.1278 187.175 39.075 187.281 38.9588C187.397 38.8426 187.45 38.6946 187.45 38.515C187.45 38.3354 187.397 38.1874 187.281 38.0712C187.175 37.9655 187.038 37.9021 186.869 37.9021H186.108V39.1278H186.869ZM203.574 42.2555L203.289 41.4313H201.334L201.091 42.2555H199.496L201.324 36.4968H203.183L205.085 42.2555H203.574ZM201.715 40.1634H202.877L202.285 38.198L201.715 40.1634ZM219.699 36.4968H221.157V42.2555H220.026L217.998 39.3603V42.2555H216.529V36.4968H217.67L219.699 39.392V36.4968ZM238 36.4968L236.056 40.0471V42.2555H234.587V40.0577L232.643 36.4968H234.291L235.316 38.6312L236.341 36.4968H238Z" fill="#2B2A28"/>
<path fill-rule="evenodd" clip-rule="evenodd" d="M165.028 11.0632L180.941 28.8678H174.907L158.994 11.0632H165.028Z" fill="#CB8734"/>
<path fill-rule="evenodd" clip-rule="evenodd" d="M182.769 11.0632L198.682 28.8678H192.659L176.746 11.0632H182.769Z" fill="#CB8734"/>
<path fill-rule="evenodd" clip-rule="evenodd" d="M200.563 11.0632L216.476 28.8678H210.443L194.529 11.0632H200.563Z" fill="#CB8734"/>
<path fill-rule="evenodd" clip-rule="evenodd" d="M228.173 22.7817L233.604 28.868H228.754L223.313 22.7817L219.392 18.46H231.576C232.442 18.46 233.161 17.752 233.161 16.8855C233.161 16.0297 232.442 15.3111 231.576 15.3111H216.92L212.598 11H231.576C234.819 11 237.472 13.6522 237.472 16.8855C237.472 20.1295 234.819 22.7817 231.576 22.7817H228.173ZM0 11.0634H12.2254H16.5366H28.762V15.3745H16.5366V28.868H12.2254V15.3745H0V11.0634ZM50.7087 11.0634H64.6776C69.3163 11.0634 73.1097 14.8568 73.1097 19.4849V20.4359C73.1097 25.0746 69.3163 28.868 64.6776 28.868H50.7087C46.07 28.868 42.2766 25.0746 42.2766 20.4359V19.4849C42.2766 14.8568 46.07 11.0634 50.7087 11.0634ZM50.7087 15.3745H64.6776C66.9388 15.3745 68.788 17.2237 68.788 19.4849V20.4359C68.788 22.6971 66.9388 24.5463 64.6776 24.5463H50.7087C48.4474 24.5463 46.5983 22.6971 46.5983 20.4359V19.4849C46.5983 17.2237 48.4474 15.3745 50.7087 15.3745ZM93.6087 11.0634V20.6261L93.6932 20.531L108.497 11.0634H116.221L104.323 18.4917L119.063 28.868H111.255L100.139 21.1016L93.6087 25.1803V28.868H89.287V25.1803V11.0634H93.6087ZM146.6 11.0951L162.872 28.868H142.648L146.959 24.5463H153.066L146.642 17.5195L136.276 28.868H130.697L146.6 11.0951Z" fill="#2B2A28"/>
</svg>
