<svg width="255" height="68" viewBox="0 0 255 68" fill="none" xmlns="http://www.w3.org/2000/svg">
<path d="M138.997 22.9435C138.364 22.9435 137.838 22.7349 137.421 22.3178C137.004 21.8929 136.803 21.3753 136.803 20.7496C136.803 20.1239 137.004 19.5986 137.421 19.1814C137.838 18.7642 138.364 18.5557 138.997 18.5557C139.376 18.5557 139.731 18.6406 140.055 18.826C140.38 19.0037 140.635 19.2432 140.82 19.5522L139.885 20.0852C139.808 19.9385 139.685 19.8226 139.53 19.7376C139.368 19.6449 139.19 19.6063 138.997 19.6063C138.657 19.6063 138.387 19.7067 138.178 19.923C137.977 20.1316 137.869 20.4097 137.869 20.7496C137.869 21.0895 137.977 21.3676 138.178 21.5762C138.387 21.7848 138.657 21.8929 138.997 21.8929C139.19 21.8929 139.368 21.8466 139.53 21.7616C139.685 21.6766 139.808 21.553 139.885 21.4062L140.82 21.947C140.635 22.256 140.38 22.4955 140.055 22.6731C139.731 22.8508 139.383 22.9435 138.997 22.9435ZM152.771 22.3101C152.346 22.7272 151.821 22.9435 151.203 22.9435C150.585 22.9435 150.067 22.7272 149.642 22.3101C149.21 21.8852 149.001 21.3676 149.001 20.7496C149.001 20.1316 149.21 19.614 149.642 19.1891C150.067 18.7642 150.585 18.5557 151.203 18.5557C151.821 18.5557 152.346 18.7642 152.771 19.1891C153.196 19.614 153.412 20.1316 153.412 20.7496C153.412 21.3676 153.196 21.8852 152.771 22.3101ZM150.392 21.5685C150.608 21.7848 150.878 21.8929 151.203 21.8929C151.527 21.8929 151.798 21.7848 152.014 21.5685C152.23 21.3521 152.338 21.0818 152.338 20.7496C152.338 20.4174 152.23 20.1393 152.014 19.9307C151.798 19.7144 151.527 19.6063 151.203 19.6063C150.878 19.6063 150.608 19.7144 150.392 19.9307C150.175 20.1393 150.067 20.4174 150.067 20.7496C150.067 21.0818 150.175 21.3521 150.392 21.5685ZM166.259 18.6406V22.8508H165.193V20.5874L164.165 22.2714H164.057L163.045 20.5951V22.8508H161.964V18.6406H163.045L164.111 20.4406L165.193 18.6406H166.259ZM176.618 18.6406C177.043 18.6406 177.398 18.7797 177.692 19.0578C177.978 19.3359 178.125 19.6913 178.125 20.1161C178.125 20.5487 177.978 20.8964 177.692 21.1745C177.398 21.4526 177.043 21.5916 176.618 21.5916H176.062V22.8508H174.981V18.6406H176.618ZM176.618 20.5642C176.742 20.5642 176.842 20.5256 176.92 20.4406C177.005 20.3556 177.043 20.2475 177.043 20.1161C177.043 19.9848 177.005 19.8767 176.92 19.7917C176.842 19.7144 176.742 19.6681 176.618 19.6681H176.062V20.5642H176.618ZM188.832 22.8508L188.623 22.2483H187.194L187.016 22.8508H185.85L187.186 18.6406H188.546L189.936 22.8508H188.832ZM187.472 21.3212H188.322L187.889 19.8844L187.472 21.3212ZM200.62 18.6406H201.686V22.8508H200.86L199.376 20.7341V22.8508H198.303V18.6406H199.137L200.62 20.7573V18.6406ZM214 18.6406L212.579 21.2363V22.8508H211.505V21.244L210.083 18.6406H211.288L212.038 20.2011L212.787 18.6406H214Z" fill="#2B2A28"/>
<path fill-rule="evenodd" clip-rule="evenodd" d="M160.651 0.0458984L172.285 13.0627H167.873L156.24 0.0458984H160.651Z" fill="#CB8734"/>
<path fill-rule="evenodd" clip-rule="evenodd" d="M173.621 0.0458984L185.255 13.0627H180.852L169.218 0.0458984H173.621Z" fill="#CB8734"/>
<path fill-rule="evenodd" clip-rule="evenodd" d="M186.63 0.0458984L198.264 13.0627H193.853L182.219 0.0458984H186.63Z" fill="#CB8734"/>
<path fill-rule="evenodd" clip-rule="evenodd" d="M206.816 8.61348L210.786 13.0631H207.241L203.262 8.61348L200.396 5.45392H209.303C209.937 5.45392 210.462 4.93633 210.462 4.30288C210.462 3.67714 209.937 3.15184 209.303 3.15184H198.588L195.429 0H209.303C211.675 0 213.614 1.939 213.614 4.30288C213.614 6.67448 211.675 8.61348 209.303 8.61348H206.816ZM40 0.0463506H48.9379H52.0898H61.0277V3.19819H52.0898V13.0631H48.9379V3.19819H40V0.0463506ZM77.0727 0.0463506H87.2853C90.6766 0.0463506 93.4499 2.81966 93.4499 6.20325V6.89851C93.4499 10.2898 90.6766 13.0631 87.2853 13.0631H77.0727C73.6814 13.0631 70.9081 10.2898 70.9081 6.89851V6.20325C70.9081 2.81966 73.6814 0.0463506 77.0727 0.0463506ZM77.0727 3.19819H87.2853C88.9385 3.19819 90.2904 4.55008 90.2904 6.20325V6.89851C90.2904 8.55168 88.9385 9.90357 87.2853 9.90357H77.0727C75.4196 9.90357 74.0677 8.55168 74.0677 6.89851V6.20325C74.0677 4.55008 75.4196 3.19819 77.0727 3.19819ZM108.437 0.0463506V7.03756L108.498 6.96803L119.321 0.0463506H124.968L116.27 5.47709L127.046 13.0631H121.338L113.211 7.38519L108.437 10.3671V13.0631H105.277V10.3671V0.0463506H108.437ZM147.178 0.0695258L159.075 13.0631H144.289L147.441 9.90357H151.906L147.209 4.76638L139.631 13.0631H135.552L147.178 0.0695258Z" fill="#2B2A28"/>
<path d="M21.5074 35.6V36.92H19.1434V44H17.7634V36.92H15.3874V35.6H21.5074ZM25.1578 44.156C24.2778 44.156 23.5298 43.852 22.9138 43.244C22.2978 42.636 21.9898 41.888 21.9898 41C21.9898 40.112 22.2978 39.364 22.9138 38.756C23.5298 38.148 24.2778 37.844 25.1578 37.844C26.0458 37.844 26.7938 38.148 27.4018 38.756C28.0178 39.364 28.3258 40.112 28.3258 41C28.3258 41.888 28.0178 42.636 27.4018 43.244C26.7938 43.852 26.0458 44.156 25.1578 44.156ZM23.8258 42.356C24.1858 42.716 24.6298 42.896 25.1578 42.896C25.6858 42.896 26.1298 42.716 26.4898 42.356C26.8498 41.996 27.0298 41.544 27.0298 41C27.0298 40.456 26.8498 40.004 26.4898 39.644C26.1298 39.284 25.6858 39.104 25.1578 39.104C24.6298 39.104 24.1858 39.284 23.8258 39.644C23.4658 40.004 23.2858 40.456 23.2858 41C23.2858 41.544 23.4658 41.996 23.8258 42.356ZM35.7616 44H34.2136L31.7536 41.228V44H30.4576V35.6H31.7536V40.652L34.0816 38H35.6656L33.0256 40.94L35.7616 44ZM41.8649 38H43.1609V44H41.8649V43.136C41.3769 43.816 40.6769 44.156 39.7649 44.156C38.9409 44.156 38.2369 43.852 37.6529 43.244C37.0689 42.628 36.7769 41.88 36.7769 41C36.7769 40.112 37.0689 39.364 37.6529 38.756C38.2369 38.148 38.9409 37.844 39.7649 37.844C40.6769 37.844 41.3769 38.18 41.8649 38.852V38ZM38.6129 42.38C38.9729 42.74 39.4249 42.92 39.9689 42.92C40.5129 42.92 40.9649 42.74 41.3249 42.38C41.6849 42.012 41.8649 41.552 41.8649 41C41.8649 40.448 41.6849 39.992 41.3249 39.632C40.9649 39.264 40.5129 39.08 39.9689 39.08C39.4249 39.08 38.9729 39.264 38.6129 39.632C38.2529 39.992 38.0729 40.448 38.0729 41C38.0729 41.552 38.2529 42.012 38.6129 42.38ZM46.9275 39.008C47.2555 38.264 47.8715 37.892 48.7755 37.892V39.296C48.2795 39.264 47.8475 39.384 47.4795 39.656C47.1115 39.92 46.9275 40.36 46.9275 40.976V44H45.6315V38H46.9275V39.008ZM54.7491 44.156C53.4851 44.156 52.4371 43.74 51.6051 42.908C50.7731 42.068 50.3571 41.032 50.3571 39.8C50.3571 38.568 50.7731 37.536 51.6051 36.704C52.4371 35.864 53.4851 35.444 54.7491 35.444C55.5091 35.444 56.2091 35.624 56.8491 35.984C57.4971 36.344 58.0011 36.832 58.3611 37.448L57.1611 38.144C56.9371 37.728 56.6091 37.4 56.1771 37.16C55.7531 36.912 55.2771 36.788 54.7491 36.788C53.8531 36.788 53.1251 37.072 52.5651 37.64C52.0131 38.208 51.7371 38.928 51.7371 39.8C51.7371 40.672 52.0131 41.392 52.5651 41.96C53.1251 42.528 53.8531 42.812 54.7491 42.812C55.2771 42.812 55.7571 42.692 56.1891 42.452C56.6211 42.204 56.9451 41.872 57.1611 41.456L58.3611 42.14C58.0091 42.756 57.5091 43.248 56.8611 43.616C56.2211 43.976 55.5171 44.156 54.7491 44.156ZM63.2039 44.156C62.3239 44.156 61.5759 43.852 60.9599 43.244C60.3439 42.636 60.0359 41.888 60.0359 41C60.0359 40.112 60.3439 39.364 60.9599 38.756C61.5759 38.148 62.3239 37.844 63.2039 37.844C64.0919 37.844 64.8399 38.148 65.4479 38.756C66.0639 39.364 66.3719 40.112 66.3719 41C66.3719 41.888 66.0639 42.636 65.4479 43.244C64.8399 43.852 64.0919 44.156 63.2039 44.156ZM61.8719 42.356C62.2319 42.716 62.6759 42.896 63.2039 42.896C63.7319 42.896 64.1759 42.716 64.5359 42.356C64.8959 41.996 65.0759 41.544 65.0759 41C65.0759 40.456 64.8959 40.004 64.5359 39.644C64.1759 39.284 63.7319 39.104 63.2039 39.104C62.6759 39.104 62.2319 39.284 61.8719 39.644C61.5119 40.004 61.3319 40.456 61.3319 41C61.3319 41.544 61.5119 41.996 61.8719 42.356ZM75.0557 37.844C75.7357 37.844 76.2837 38.064 76.6997 38.504C77.1157 38.944 77.3237 39.536 77.3237 40.28V44H76.0277V40.364C76.0277 39.948 75.9237 39.628 75.7157 39.404C75.5077 39.172 75.2237 39.056 74.8637 39.056C74.4637 39.056 74.1437 39.188 73.9037 39.452C73.6717 39.716 73.5557 40.112 73.5557 40.64V44H72.2597V40.364C72.2597 39.948 72.1597 39.628 71.9597 39.404C71.7677 39.172 71.4917 39.056 71.1317 39.056C70.7397 39.056 70.4197 39.192 70.1717 39.464C69.9237 39.728 69.7997 40.12 69.7997 40.64V44H68.5037V38H69.7997V38.72C70.1837 38.136 70.7557 37.844 71.5157 37.844C72.2837 37.844 72.8517 38.16 73.2197 38.792C73.6197 38.16 74.2317 37.844 75.0557 37.844ZM83.0668 37.844C83.8908 37.844 84.5948 38.152 85.1788 38.768C85.7628 39.376 86.0548 40.12 86.0548 41C86.0548 41.888 85.7628 42.636 85.1788 43.244C84.5948 43.852 83.8908 44.156 83.0668 44.156C82.1548 44.156 81.4548 43.82 80.9668 43.148V46.4H79.6708V38H80.9668V38.864C81.4548 38.184 82.1548 37.844 83.0668 37.844ZM81.5068 42.38C81.8668 42.74 82.3188 42.92 82.8628 42.92C83.4068 42.92 83.8588 42.74 84.2188 42.38C84.5788 42.012 84.7588 41.552 84.7588 41C84.7588 40.448 84.5788 39.992 84.2188 39.632C83.8588 39.264 83.4068 39.08 82.8628 39.08C82.3188 39.08 81.8668 39.264 81.5068 39.632C81.1468 39.992 80.9668 40.448 80.9668 41C80.9668 41.552 81.1468 42.012 81.5068 42.38ZM92.9414 38H94.2374V44H92.9414V43.136C92.4534 43.816 91.7534 44.156 90.8414 44.156C90.0174 44.156 89.3134 43.852 88.7294 43.244C88.1454 42.628 87.8534 41.88 87.8534 41C87.8534 40.112 88.1454 39.364 88.7294 38.756C89.3134 38.148 90.0174 37.844 90.8414 37.844C91.7534 37.844 92.4534 38.18 92.9414 38.852V38ZM89.6894 42.38C90.0494 42.74 90.5014 42.92 91.0454 42.92C91.5894 42.92 92.0414 42.74 92.4014 42.38C92.7614 42.012 92.9414 41.552 92.9414 41C92.9414 40.448 92.7614 39.992 92.4014 39.632C92.0414 39.264 91.5894 39.08 91.0454 39.08C90.5014 39.08 90.0494 39.264 89.6894 39.632C89.3294 39.992 89.1494 40.448 89.1494 41C89.1494 41.552 89.3294 42.012 89.6894 42.38ZM99.864 37.844C100.552 37.844 101.108 38.064 101.532 38.504C101.956 38.944 102.168 39.548 102.168 40.316V44H100.872V40.448C100.872 40 100.752 39.656 100.512 39.416C100.272 39.176 99.944 39.056 99.528 39.056C99.072 39.056 98.704 39.2 98.424 39.488C98.144 39.768 98.004 40.2 98.004 40.784V44H96.708V38H98.004V38.768C98.396 38.152 99.016 37.844 99.864 37.844ZM108.45 38H109.83L107.526 44.192C106.95 45.744 105.974 46.48 104.598 46.4V45.188C105.006 45.212 105.334 45.124 105.582 44.924C105.83 44.732 106.034 44.428 106.194 44.012L106.254 43.892L103.71 38H105.126L106.914 42.356L108.45 38ZM115.645 40.976V39.728H120.085V40.976H115.645ZM131.938 38V44H130.642V39.224H127.894V44H126.598V38H131.938ZM137.798 37.844C138.622 37.844 139.326 38.152 139.91 38.768C140.494 39.376 140.786 40.12 140.786 41C140.786 41.888 140.494 42.636 139.91 43.244C139.326 43.852 138.622 44.156 137.798 44.156C136.886 44.156 136.186 43.82 135.698 43.148V46.4H134.402V38H135.698V38.864C136.186 38.184 136.886 37.844 137.798 37.844ZM136.238 42.38C136.598 42.74 137.05 42.92 137.594 42.92C138.138 42.92 138.59 42.74 138.95 42.38C139.31 42.012 139.49 41.552 139.49 41C139.49 40.448 139.31 39.992 138.95 39.632C138.59 39.264 138.138 39.08 137.594 39.08C137.05 39.08 136.598 39.264 136.238 39.632C135.878 39.992 135.698 40.448 135.698 41C135.698 41.552 135.878 42.012 136.238 42.38ZM145.752 44.156C144.872 44.156 144.124 43.852 143.508 43.244C142.892 42.636 142.584 41.888 142.584 41C142.584 40.112 142.892 39.364 143.508 38.756C144.124 38.148 144.872 37.844 145.752 37.844C146.64 37.844 147.388 38.148 147.996 38.756C148.612 39.364 148.92 40.112 148.92 41C148.92 41.888 148.612 42.636 147.996 43.244C147.388 43.852 146.64 44.156 145.752 44.156ZM144.42 42.356C144.78 42.716 145.224 42.896 145.752 42.896C146.28 42.896 146.724 42.716 147.084 42.356C147.444 41.996 147.624 41.544 147.624 41C147.624 40.456 147.444 40.004 147.084 39.644C146.724 39.284 146.28 39.104 145.752 39.104C145.224 39.104 144.78 39.284 144.42 39.644C144.06 40.004 143.88 40.456 143.88 41C143.88 41.544 144.06 41.996 144.42 42.356ZM155.396 38H156.392V44H155.12V40.184L152.048 44H151.052V38H152.324V41.804L155.396 38ZM162.228 40.928C162.868 41.216 163.188 41.692 163.188 42.356C163.188 42.868 162.98 43.296 162.564 43.64C162.148 43.984 161.568 44.156 160.824 44.156C159.616 44.156 158.8 43.676 158.376 42.716L159.432 42.092C159.648 42.692 160.116 42.992 160.836 42.992C161.172 42.992 161.436 42.924 161.628 42.788C161.82 42.644 161.916 42.456 161.916 42.224C161.916 42.016 161.84 41.852 161.688 41.732C161.536 41.604 161.324 41.54 161.052 41.54H160.2V40.4H160.836C161.1 40.4 161.304 40.34 161.448 40.22C161.6 40.092 161.676 39.92 161.676 39.704C161.676 39.496 161.592 39.328 161.424 39.2C161.256 39.064 161.032 38.996 160.752 38.996C160.152 38.996 159.736 39.26 159.504 39.788L158.448 39.188C158.896 38.292 159.656 37.844 160.728 37.844C161.4 37.844 161.932 38.016 162.324 38.36C162.724 38.696 162.924 39.108 162.924 39.596C162.924 40.196 162.692 40.64 162.228 40.928ZM169.358 40.916C169.95 41.188 170.246 41.648 170.246 42.296C170.246 42.8 170.074 43.212 169.73 43.532C169.394 43.844 168.91 44 168.278 44H165.206V38H168.038C168.654 38 169.13 38.156 169.466 38.468C169.81 38.772 169.982 39.168 169.982 39.656C169.982 40.224 169.774 40.644 169.358 40.916ZM167.942 39.104H166.442V40.436H167.942C168.47 40.436 168.734 40.212 168.734 39.764C168.734 39.324 168.47 39.104 167.942 39.104ZM168.158 42.872C168.702 42.872 168.974 42.636 168.974 42.164C168.974 41.956 168.902 41.796 168.758 41.684C168.614 41.564 168.414 41.504 168.158 41.504H166.442V42.872H168.158ZM175.092 44.156C174.212 44.156 173.464 43.852 172.848 43.244C172.232 42.636 171.924 41.888 171.924 41C171.924 40.112 172.232 39.364 172.848 38.756C173.464 38.148 174.212 37.844 175.092 37.844C175.98 37.844 176.728 38.148 177.336 38.756C177.952 39.364 178.26 40.112 178.26 41C178.26 41.888 177.952 42.636 177.336 43.244C176.728 43.852 175.98 44.156 175.092 44.156ZM173.76 42.356C174.12 42.716 174.564 42.896 175.092 42.896C175.62 42.896 176.064 42.716 176.424 42.356C176.784 41.996 176.964 41.544 176.964 41C176.964 40.456 176.784 40.004 176.424 39.644C176.064 39.284 175.62 39.104 175.092 39.104C174.564 39.104 174.12 39.284 173.76 39.644C173.4 40.004 173.22 40.456 173.22 41C173.22 41.544 173.4 41.996 173.76 42.356ZM185.438 42.776H186.242V45.608H184.97V44H180.854V45.608H179.582V42.776H180.314C180.682 42.256 180.866 41.532 180.866 40.604V38H185.438V42.776ZM181.742 42.776H184.166V39.188H182.138V40.604C182.138 41.46 182.006 42.184 181.742 42.776ZM190.852 44.156C189.948 44.156 189.192 43.852 188.584 43.244C187.984 42.636 187.684 41.888 187.684 41C187.684 40.104 187.984 39.356 188.584 38.756C189.192 38.148 189.948 37.844 190.852 37.844C191.436 37.844 191.968 37.984 192.448 38.264C192.928 38.544 193.288 38.92 193.528 39.392L192.412 40.04C192.276 39.752 192.068 39.528 191.788 39.368C191.516 39.2 191.2 39.116 190.84 39.116C190.312 39.116 189.868 39.296 189.508 39.656C189.156 40.016 188.98 40.464 188.98 41C188.98 41.536 189.156 41.984 189.508 42.344C189.868 42.704 190.312 42.884 190.84 42.884C191.192 42.884 191.508 42.8 191.788 42.632C192.076 42.464 192.292 42.24 192.436 41.96L193.552 42.596C193.296 43.076 192.928 43.456 192.448 43.736C191.968 44.016 191.436 44.156 190.852 44.156ZM199.974 38V39.248H198.018V44H196.722V39.248H194.754V38H199.974ZM205.963 40.916C206.555 41.188 206.851 41.648 206.851 42.296C206.851 42.8 206.679 43.212 206.335 43.532C205.999 43.844 205.515 44 204.883 44H201.811V38H204.643C205.259 38 205.735 38.156 206.071 38.468C206.415 38.772 206.587 39.168 206.587 39.656C206.587 40.224 206.379 40.644 205.963 40.916ZM204.547 39.104H203.047V40.436H204.547C205.075 40.436 205.339 40.212 205.339 39.764C205.339 39.324 205.075 39.104 204.547 39.104ZM204.763 42.872C205.307 42.872 205.579 42.636 205.579 42.164C205.579 41.956 205.507 41.796 205.363 41.684C205.219 41.564 205.019 41.504 204.763 41.504H203.047V42.872H204.763ZM209.885 41.552C209.981 42.008 210.201 42.36 210.545 42.608C210.889 42.848 211.309 42.968 211.805 42.968C212.493 42.968 213.009 42.72 213.353 42.224L214.421 42.848C213.829 43.72 212.953 44.156 211.793 44.156C210.817 44.156 210.029 43.86 209.429 43.268C208.829 42.668 208.529 41.912 208.529 41C208.529 40.104 208.825 39.356 209.417 38.756C210.009 38.148 210.769 37.844 211.697 37.844C212.577 37.844 213.297 38.152 213.857 38.768C214.425 39.384 214.709 40.132 214.709 41.012C214.709 41.148 214.693 41.328 214.661 41.552H209.885ZM209.873 40.496H213.401C213.313 40.008 213.109 39.64 212.789 39.392C212.477 39.144 212.109 39.02 211.685 39.02C211.205 39.02 210.805 39.152 210.485 39.416C210.165 39.68 209.961 40.04 209.873 40.496ZM220.853 38H222.149V44H220.853V41.612H218.105V44H216.809V38H218.105V40.388H220.853V38ZM228.657 38H229.953V44H228.657V41.612H225.909V44H224.613V38H225.909V40.388H228.657V38ZM235.249 44.156C234.369 44.156 233.621 43.852 233.005 43.244C232.389 42.636 232.081 41.888 232.081 41C232.081 40.112 232.389 39.364 233.005 38.756C233.621 38.148 234.369 37.844 235.249 37.844C236.137 37.844 236.885 38.148 237.493 38.756C238.109 39.364 238.417 40.112 238.417 41C238.417 41.888 238.109 42.636 237.493 43.244C236.885 43.852 236.137 44.156 235.249 44.156ZM233.917 42.356C234.277 42.716 234.721 42.896 235.249 42.896C235.777 42.896 236.221 42.716 236.581 42.356C236.941 41.996 237.121 41.544 237.121 41C237.121 40.456 236.941 40.004 236.581 39.644C236.221 39.284 235.777 39.104 235.249 39.104C234.721 39.104 234.277 39.284 233.917 39.644C233.557 40.004 233.377 40.456 233.377 41C233.377 41.544 233.557 41.996 233.917 42.356ZM47.133 58.976V57.728H51.573V58.976H47.133ZM56.9582 62.156C56.0542 62.156 55.2982 61.852 54.6902 61.244C54.0902 60.636 53.7902 59.888 53.7902 59C53.7902 58.104 54.0902 57.356 54.6902 56.756C55.2982 56.148 56.0542 55.844 56.9582 55.844C57.5422 55.844 58.0742 55.984 58.5542 56.264C59.0342 56.544 59.3942 56.92 59.6342 57.392L58.5182 58.04C58.3822 57.752 58.1742 57.528 57.8942 57.368C57.6222 57.2 57.3062 57.116 56.9462 57.116C56.4182 57.116 55.9742 57.296 55.6142 57.656C55.2622 58.016 55.0862 58.464 55.0862 59C55.0862 59.536 55.2622 59.984 55.6142 60.344C55.9742 60.704 56.4182 60.884 56.9462 60.884C57.2982 60.884 57.6142 60.8 57.8942 60.632C58.1822 60.464 58.3982 60.24 58.5422 59.96L59.6582 60.596C59.4022 61.076 59.0342 61.456 58.5542 61.736C58.0742 62.016 57.5422 62.156 56.9582 62.156ZM66.0804 56V57.248H64.1244V62H62.8284V57.248H60.8604V56H66.0804ZM71.3133 55.844C72.1373 55.844 72.8413 56.152 73.4253 56.768C74.0093 57.376 74.3013 58.12 74.3013 59C74.3013 59.888 74.0093 60.636 73.4253 61.244C72.8413 61.852 72.1373 62.156 71.3133 62.156C70.4013 62.156 69.7013 61.82 69.2133 61.148V64.4H67.9173V56H69.2133V56.864C69.7013 56.184 70.4013 55.844 71.3133 55.844ZM69.7533 60.38C70.1133 60.74 70.5653 60.92 71.1093 60.92C71.6533 60.92 72.1053 60.74 72.4653 60.38C72.8253 60.012 73.0053 59.552 73.0053 59C73.0053 58.448 72.8253 57.992 72.4653 57.632C72.1053 57.264 71.6533 57.08 71.1093 57.08C70.5653 57.08 70.1133 57.264 69.7533 57.632C69.3933 57.992 69.2133 58.448 69.2133 59C69.2133 59.552 69.3933 60.012 69.7533 60.38ZM79.2679 62.156C78.3879 62.156 77.6399 61.852 77.0239 61.244C76.4079 60.636 76.0999 59.888 76.0999 59C76.0999 58.112 76.4079 57.364 77.0239 56.756C77.6399 56.148 78.3879 55.844 79.2679 55.844C80.1559 55.844 80.9039 56.148 81.5119 56.756C82.1279 57.364 82.4359 58.112 82.4359 59C82.4359 59.888 82.1279 60.636 81.5119 61.244C80.9039 61.852 80.1559 62.156 79.2679 62.156ZM77.9359 60.356C78.2959 60.716 78.7399 60.896 79.2679 60.896C79.7959 60.896 80.2399 60.716 80.5999 60.356C80.9599 59.996 81.1399 59.544 81.1399 59C81.1399 58.456 80.9599 58.004 80.5999 57.644C80.2399 57.284 79.7959 57.104 79.2679 57.104C78.7399 57.104 78.2959 57.284 77.9359 57.644C77.5759 58.004 77.3959 58.456 77.3959 59C77.3959 59.544 77.5759 59.996 77.9359 60.356ZM88.9118 56H89.9078V62H88.6358V58.184L85.5638 62H84.5678V56H85.8398V59.804L88.9118 56ZM96.9555 56V57.248H94.9995V62H93.7035V57.248H91.7355V56H96.9555ZM99.5781 59.552C99.6741 60.008 99.8941 60.36 100.238 60.608C100.582 60.848 101.002 60.968 101.498 60.968C102.186 60.968 102.702 60.72 103.046 60.224L104.114 60.848C103.522 61.72 102.646 62.156 101.486 62.156C100.51 62.156 99.7221 61.86 99.1221 61.268C98.5221 60.668 98.2221 59.912 98.2221 59C98.2221 58.104 98.5181 57.356 99.1101 56.756C99.7021 56.148 100.462 55.844 101.39 55.844C102.27 55.844 102.99 56.152 103.55 56.768C104.118 57.384 104.402 58.132 104.402 59.012C104.402 59.148 104.386 59.328 104.354 59.552H99.5781ZM99.5661 58.496H103.094C103.006 58.008 102.802 57.64 102.482 57.392C102.17 57.144 101.802 57.02 101.378 57.02C100.898 57.02 100.498 57.152 100.178 57.416C99.8581 57.68 99.6541 58.04 99.5661 58.496ZM111.332 56V62H110.036V57.248H108.032V59.48C108.032 60.432 107.824 61.108 107.408 61.508C106.992 61.908 106.4 62.072 105.632 62V60.788C106 60.852 106.276 60.776 106.46 60.56C106.644 60.344 106.736 59.964 106.736 59.42V56H111.332ZM116.418 58.04C117.058 58.04 117.582 58.224 117.99 58.592C118.398 58.952 118.602 59.428 118.602 60.02C118.602 60.604 118.398 61.08 117.99 61.448C117.582 61.816 117.058 62 116.418 62H113.802V56H115.098V58.04H116.418ZM116.43 60.836C116.686 60.836 116.898 60.76 117.066 60.608C117.242 60.456 117.33 60.26 117.33 60.02C117.33 59.772 117.242 59.576 117.066 59.432C116.898 59.28 116.686 59.204 116.43 59.204H115.098V60.836H116.43ZM124.666 56H125.962V62H124.666V59.612H121.918V62H120.622V56H121.918V58.388H124.666V56ZM133.177 56H134.473V62H133.177V61.136C132.689 61.816 131.989 62.156 131.077 62.156C130.253 62.156 129.549 61.852 128.965 61.244C128.381 60.628 128.089 59.88 128.089 59C128.089 58.112 128.381 57.364 128.965 56.756C129.549 56.148 130.253 55.844 131.077 55.844C131.989 55.844 132.689 56.18 133.177 56.852V56ZM129.925 60.38C130.285 60.74 130.737 60.92 131.281 60.92C131.825 60.92 132.277 60.74 132.637 60.38C132.997 60.012 133.177 59.552 133.177 59C133.177 58.448 132.997 57.992 132.637 57.632C132.277 57.264 131.825 57.08 131.281 57.08C130.737 57.08 130.285 57.264 129.925 57.632C129.565 57.992 129.385 58.448 129.385 59C129.385 59.552 129.565 60.012 129.925 60.38ZM141.588 56V62H140.316V59.984H139.596L138.072 62H136.548L138.168 59.864C137.752 59.728 137.416 59.488 137.16 59.144C136.912 58.8 136.788 58.416 136.788 57.992C136.788 57.44 136.984 56.972 137.376 56.588C137.776 56.196 138.288 56 138.912 56H141.588ZM138.984 58.868H140.316V57.176H138.984C138.72 57.176 138.5 57.252 138.324 57.404C138.148 57.556 138.06 57.764 138.06 58.028C138.06 58.284 138.148 58.488 138.324 58.64C138.5 58.792 138.72 58.868 138.984 58.868ZM153.32 62H151.772L149.312 59.228V62H148.016V56H149.312V58.652L151.64 56H153.224L150.584 58.94L153.32 62ZM157.504 62.156C156.624 62.156 155.876 61.852 155.26 61.244C154.644 60.636 154.336 59.888 154.336 59C154.336 58.112 154.644 57.364 155.26 56.756C155.876 56.148 156.624 55.844 157.504 55.844C158.392 55.844 159.14 56.148 159.748 56.756C160.364 57.364 160.672 58.112 160.672 59C160.672 59.888 160.364 60.636 159.748 61.244C159.14 61.852 158.392 62.156 157.504 62.156ZM156.172 60.356C156.532 60.716 156.976 60.896 157.504 60.896C158.032 60.896 158.476 60.716 158.836 60.356C159.196 59.996 159.376 59.544 159.376 59C159.376 58.456 159.196 58.004 158.836 57.644C158.476 57.284 158.032 57.104 157.504 57.104C156.976 57.104 156.532 57.284 156.172 57.644C155.812 58.004 155.632 58.456 155.632 59C155.632 59.544 155.812 59.996 156.172 60.356ZM168.924 56V62H167.664V58.052L165.936 60.8H165.78L164.064 58.064V62H162.804V56H164.124L165.864 58.772L167.604 56H168.924ZM176.721 56V62H175.425V57.224H172.677V62H171.381V56H176.721ZM183.937 56H185.233V62H183.937V61.136C183.449 61.816 182.749 62.156 181.837 62.156C181.013 62.156 180.309 61.852 179.725 61.244C179.141 60.628 178.849 59.88 178.849 59C178.849 58.112 179.141 57.364 179.725 56.756C180.309 56.148 181.013 55.844 181.837 55.844C182.749 55.844 183.449 56.18 183.937 56.852V56ZM180.685 60.38C181.045 60.74 181.497 60.92 182.041 60.92C182.585 60.92 183.037 60.74 183.397 60.38C183.757 60.012 183.937 59.552 183.937 59C183.937 58.448 183.757 57.992 183.397 57.632C183.037 57.264 182.585 57.08 182.041 57.08C181.497 57.08 181.045 57.264 180.685 57.632C180.325 57.992 180.145 58.448 180.145 59C180.145 59.552 180.325 60.012 180.685 60.38ZM191.747 56H193.043V62H191.747V59.612H188.999V62H187.703V56H188.999V58.388H191.747V56ZM199.851 56H200.847V62H199.575V58.184L196.503 62H195.507V56H196.779V59.804L199.851 56ZM207.955 56V62H206.683V59.984H205.963L204.439 62H202.915L204.535 59.864C204.119 59.728 203.783 59.488 203.527 59.144C203.279 58.8 203.155 58.416 203.155 57.992C203.155 57.44 203.351 56.972 203.743 56.588C204.143 56.196 204.655 56 205.279 56H207.955ZM205.351 58.868H206.683V57.176H205.351C205.087 57.176 204.867 57.252 204.691 57.404C204.515 57.556 204.427 57.764 204.427 58.028C204.427 58.284 204.515 58.488 204.691 58.64C204.867 58.792 205.087 58.868 205.351 58.868Z" fill="#2B2A28"/>
</svg>
