<svg width="20" height="18" viewBox="0 0 20 18" fill="none" xmlns="http://www.w3.org/2000/svg">
<path d="M1.94543 0.5H18.0546C18.1999 0.5 18.3421 0.542205 18.4638 0.621485C18.5856 0.700766 18.6817 0.813708 18.7405 0.946585C18.7993 1.07946 18.8182 1.22655 18.7949 1.36998C18.7717 1.51341 18.7073 1.64699 18.6096 1.7545L12.4451 8.53545C12.3196 8.6735 12.25 8.85338 12.25 9.03995V14.3486C12.25 14.4721 12.2195 14.5936 12.1613 14.7025C12.103 14.8114 12.0188 14.9042 11.916 14.9726L8.91605 16.9727C8.8031 17.048 8.67183 17.0912 8.53623 17.0977C8.40064 17.1043 8.26581 17.0739 8.14613 17.0099C8.02644 16.9458 7.92638 16.8505 7.85662 16.734C7.78686 16.6176 7.75002 16.4844 7.75002 16.3486V9.03996C7.75002 8.85338 7.68048 8.67351 7.55498 8.53545L1.39048 1.7545C1.29274 1.64699 1.22834 1.51341 1.20509 1.36998C1.18185 1.22655 1.20077 1.07946 1.25955 0.946585C1.31833 0.813708 1.41444 0.700766 1.5362 0.621485C1.65797 0.542205 1.80014 0.5 1.94543 0.5V0.5Z" stroke="#E7D8C7" stroke-linecap="round" stroke-linejoin="round"/>
</svg>
