<svg width="62" height="63" viewBox="0 0 62 63" fill="none" xmlns="http://www.w3.org/2000/svg">
<rect opacity="0.58" width="62" height="62" fill="white"/>
<path d="M59.0695 21.6023L42.7789 31.3127C41.5762 32.0296 41.0945 33.5045 41.5796 34.7708C40.8532 35.0754 40.0403 35.0897 39.2957 34.802L37.1883 33.9741C36.3476 33.6436 35.44 33.5861 34.564 33.808L31.3351 34.6251C31.2099 34.6567 31.0872 34.6938 30.9672 34.7358C28.9946 33.6096 27.8195 33.273 25.7379 34.0779L23.8691 34.8003C22.9859 35.1417 22.0122 35.0607 21.1957 34.577L20.5714 34.209C20.7505 33.0922 20.2492 31.9256 19.2212 31.3128L2.9306 21.6023C1.63889 20.8326 0 21.7617 0 23.2672V41.4521C0 42.7079 0.670013 43.8872 1.7486 44.5301L8.86142 48.77C10.1845 49.5584 11.8853 49.1496 12.7088 47.8638L13.0129 48.0433L12.0906 49.328C11.0605 50.7626 11.388 52.7574 12.8229 53.7876C13.5321 54.2968 14.3965 54.4889 15.2434 54.3385C15.3731 55.1955 15.8347 55.9499 16.5394 56.4558C17.2467 56.9636 18.1165 57.1546 18.9611 57.0048C19.0855 57.8276 19.5281 58.6015 20.2559 59.1239C21.2365 59.8278 22.4524 59.8852 23.4394 59.4397C23.6566 60.0415 24.0495 60.5636 24.5804 60.9448C25.9596 61.9348 27.8722 61.6676 28.9298 60.3571L31.3189 61.7724C31.8288 62.0746 32.3893 62.2182 32.9428 62.2182C34.0356 62.2182 35.1019 61.6582 35.6981 60.6517C35.9499 60.2268 36.0917 59.7665 36.1319 59.3045L36.2249 59.3596C36.9596 59.7948 37.8198 59.9181 38.6467 59.7062C39.4739 59.4945 40.1691 58.9734 40.6041 58.2389C40.8732 57.7848 41.0229 57.2828 41.0481 56.7703C41.5804 56.919 42.1449 56.9259 42.6948 56.7853C43.522 56.5736 44.2172 56.0524 44.6523 55.318C44.9055 54.8908 45.0531 54.4211 45.0904 53.94C46.5401 54.5535 48.2604 54.015 49.0842 52.6246C49.8077 51.4035 49.6223 49.8917 48.7306 48.8802L49.6669 48.3332C50.5547 49.2294 51.9836 49.4583 53.1388 48.7698L54.8584 47.7448C55.2893 47.4879 55.4304 46.9304 55.1736 46.4997C54.9166 46.0686 54.3587 45.9278 53.9285 46.1845L52.2089 47.2095C51.8035 47.4514 51.3099 47.3776 50.9918 47.0866C50.9859 47.0355 43.3515 34.2772 43.3515 34.2772C43.0639 33.7917 43.2243 33.1618 43.7089 32.8729L59.9995 23.1625C60.0826 23.1135 60.1837 23.1719 60.1837 23.2671V41.452C60.1837 42.0712 59.8532 42.6528 59.3215 42.9697L57.6045 43.9932C57.1736 44.25 57.0325 44.8075 57.2893 45.2383C57.546 45.6692 58.1039 45.8098 58.5344 45.5535L60.2514 44.53C61.33 43.8871 62 42.7078 62 41.452V23.2672C62.0001 21.7637 60.3628 20.8313 59.0695 21.6023ZM35.0095 35.5688C35.515 35.4409 36.0388 35.4741 36.5241 35.6647L38.6361 36.4944C39.8967 36.9818 41.2734 36.9283 42.4744 36.361L48.6671 46.8138L47.6636 47.4002C47.4812 47.5082 47.3063 47.6278 47.14 47.7583L33.8958 39.9152C33.615 39.7489 33.2666 39.7462 32.9833 39.9077C32.6999 40.0692 32.5249 40.3704 32.5249 40.6968V40.8792C32.5249 41.5253 32.2732 42.1327 31.8162 42.5893C31.3596 43.0457 30.7527 43.2969 30.1074 43.2969C30.0025 43.293 29.9101 43.2088 29.91 43.0995V38.7892C29.91 37.8501 30.4356 37.0119 31.2401 36.592C31.28 36.5759 31.319 36.5569 31.3566 36.5351C31.4912 36.4736 31.633 36.4235 31.7806 36.3861L35.0095 35.5688ZM10.5699 47.3227C10.3039 47.39 10.0273 47.3504 9.79142 47.2095L2.6786 42.9698C2.14675 42.6528 1.81641 42.0713 1.81641 41.4521V23.2672C1.81641 23.2478 1.81641 23.1964 1.87805 23.1614C1.90105 23.1483 1.92176 23.1437 1.93944 23.1437C1.96899 23.1437 1.99018 23.1563 2.00059 23.1625L18.2914 32.8729C18.776 33.1618 18.9364 33.7917 18.6487 34.2773L11.1995 46.8514C11.0596 47.0875 10.836 47.255 10.5699 47.3227ZM14.9101 52.5527C14.5465 52.6125 14.1816 52.5269 13.8821 52.3121C13.5829 52.0973 13.3851 51.7788 13.3254 51.4153C13.2657 51.0516 13.3511 50.6866 13.566 50.3874L14.8617 48.5825C14.8933 48.5384 14.9273 48.4969 14.9629 48.4578C14.9897 48.4337 15.0153 48.4077 15.0395 48.38C15.5102 47.9391 16.2434 47.8765 16.7867 48.2665C17.4045 48.71 17.5463 49.5735 17.1027 50.1914C17.102 50.1923 17.1013 50.1934 17.1005 50.1944L15.8069 51.9963C15.5922 52.2954 15.2736 52.493 14.9101 52.5527ZM17.5986 54.9802C17.2994 54.7653 17.1016 54.4469 17.0419 54.0833C16.9822 53.7197 17.0676 53.3547 17.2825 53.0555L18.5782 51.2506C18.5782 51.2506 18.5782 51.2505 18.5784 51.2505L20.0082 49.2587C20.2231 48.9594 20.5415 48.7617 20.9052 48.7019C20.9809 48.6894 21.0564 48.6834 21.1316 48.6834C21.4178 48.6834 21.696 48.7724 21.9331 48.9426C22.551 49.3861 22.6928 50.2496 22.2492 50.8676L19.5234 54.6643C19.0798 55.282 18.2163 55.4234 17.5986 54.9802ZM22.3429 57.8888C21.9795 57.9485 21.6144 57.863 21.3151 57.6482C20.6973 57.2048 20.5555 56.3412 20.999 55.7234C20.9998 55.7223 21.0005 55.7214 21.0012 55.7203L23.7249 51.9265C24.1683 51.3086 25.0318 51.1671 25.6498 51.6105C25.949 51.8253 26.1467 52.1438 26.2064 52.5074C26.2661 52.8709 26.1806 53.236 25.9658 53.5353L23.24 57.332C23.0251 57.6314 22.7065 57.8291 22.3429 57.8888ZM25.6396 59.4691C25.3404 59.2543 25.1426 58.9358 25.0829 58.5722C25.0232 58.2086 25.1086 57.8437 25.3235 57.5444C25.3245 57.5431 25.3254 57.5419 25.3262 57.5406L26.2309 56.2805C26.6748 55.6638 27.5374 55.5225 28.1547 55.9657C28.7725 56.4093 28.9143 57.2728 28.4708 57.8906L27.9525 58.6126C27.947 58.6199 27.9417 58.6274 27.9365 58.6349L27.5644 59.1533C27.1211 59.7709 26.2577 59.9128 25.6396 59.4691ZM47.5215 51.6989C47.1337 52.3534 46.2851 52.5705 45.6311 52.1826L43.5315 50.9389C43.5305 50.9384 43.5297 50.9378 43.5287 50.9373L37.0259 47.0848C36.5942 46.8292 36.0372 46.9717 35.7817 47.4032C35.5261 47.8348 35.6685 48.3919 36.1001 48.6474L42.6057 52.5016C42.6057 52.5016 42.6057 52.5016 42.6058 52.5017L42.6067 52.5022C43.2606 52.8903 43.4772 53.738 43.0897 54.3922C42.9018 54.7094 42.6017 54.9344 42.2446 55.0257C41.8875 55.117 41.5161 55.0641 41.199 54.876L39.4875 53.8622C39.4861 53.8614 39.4849 53.8605 39.4834 53.8597C39.4826 53.8592 39.4816 53.8586 39.4808 53.8581L34.6902 51.02C34.2585 50.7643 33.7015 50.9069 33.4459 51.3384C33.1903 51.77 33.3327 52.3271 33.7643 52.5826L38.555 55.4208C38.556 55.4214 38.5569 55.422 38.5578 55.4225C38.8748 55.6103 39.0999 55.9104 39.1912 56.2675C39.2826 56.6246 39.2294 56.996 39.0415 57.3131C38.8537 57.6303 38.5537 57.8553 38.1964 57.9466C37.8395 58.038 37.4679 57.9849 37.1509 57.797L34.5824 56.2754C34.5807 56.2744 34.5791 56.2733 34.5775 56.2723L32.6991 55.1596C32.2678 54.9042 31.7106 55.0465 31.4549 55.4782C31.1994 55.9097 31.3418 56.4668 31.7735 56.7225L33.6518 57.8352L33.6543 57.8366C34.3071 58.2251 34.5232 59.0719 34.1359 59.7258C33.7478 60.3805 32.8997 60.5973 32.2453 60.2098L29.997 58.8779C30.9632 57.452 30.6221 55.5007 29.2145 54.4901C28.7843 54.1813 28.3027 53.9951 27.8115 53.9243C28.0288 53.3873 28.0954 52.7995 27.9991 52.2133C27.8608 51.3709 27.4027 50.6329 26.7093 50.1351C25.9817 49.6128 25.1069 49.4408 24.2876 49.586C24.1632 48.7633 23.7206 47.9894 22.9928 47.467C22.2993 46.9692 21.4539 46.7713 20.6113 46.9095C19.9077 47.025 19.2771 47.3636 18.7983 47.8761C18.5752 47.4588 18.2559 47.0849 17.8463 46.7908C16.761 46.0117 15.3483 46.0122 14.2805 46.6822L13.6365 46.3021L19.8157 35.8719L20.272 36.1408C21.0394 36.5955 21.8954 36.8262 22.7578 36.8262C23.3527 36.8262 23.9507 36.7164 24.5246 36.4945L26.3933 35.7721C27.5104 35.3405 28.1103 35.3201 29.2381 35.8687C28.5211 36.6424 28.0939 37.6747 28.0939 38.7892V43.0995C28.0939 44.2091 28.996 45.1124 30.1048 45.1133H30.1076C31.238 45.1133 32.3009 44.6732 33.1006 43.8741C33.5859 43.3892 33.939 42.8071 34.1418 42.1718L46.7918 49.6629C46.8336 49.6877 46.8767 49.7087 46.9208 49.7261C46.9571 49.7562 46.9961 49.7838 47.038 49.8086C47.6921 50.1963 47.9093 51.0444 47.5215 51.6989Z" fill="#CB8734"/>
<path d="M20.589 24.6646H41.4105C43.2957 24.6646 44.8294 23.1309 44.8294 21.2457V8.85755C44.8294 6.97236 43.2957 5.4387 41.4105 5.4387H36.3982V3.99962C36.3982 2.34572 35.0528 1 33.3991 1H28.6002C26.9466 1 25.6011 2.3456 25.6011 3.99962V5.4387H20.5888C18.7036 5.4387 17.1699 6.97236 17.1699 8.85755V15.6818C17.1699 16.1835 17.5766 16.59 18.0781 16.59C18.5797 16.59 18.9863 16.1835 18.9863 15.6818V13.9939C19.9529 14.8613 21.2297 15.3896 22.6275 15.3896H23.3383V16.3886C23.3383 16.8903 23.745 17.2968 24.2465 17.2968C24.7481 17.2968 25.1547 16.8903 25.1547 16.3886V15.3896H36.8443V16.3886C36.8443 16.8903 37.2508 17.2968 37.7525 17.2968C38.2542 17.2968 38.6607 16.8903 38.6607 16.3886V15.3896H39.3714C40.7693 15.3896 42.0461 14.8613 43.0127 13.9939V21.2456C43.0127 22.1292 42.2938 22.848 41.4103 22.848H20.589C19.7054 22.848 18.9866 22.1291 18.9866 21.2456V19.9276C18.9866 19.4259 18.5799 19.0194 18.0784 19.0194C17.5768 19.0194 17.1702 19.4259 17.1702 19.9276V21.2456C17.1702 23.1309 18.7038 24.6646 20.589 24.6646ZM27.4177 3.99962C27.4177 3.34716 27.9483 2.81641 28.6005 2.81641H33.3993C34.0515 2.81641 34.582 3.34716 34.582 3.99962V5.4387H27.4179V3.99962H27.4177ZM39.3718 13.5732H38.6611V12.5742C38.6611 12.0725 38.2546 11.666 37.7529 11.666C37.2512 11.666 36.8447 12.0725 36.8447 12.5742V13.5732H25.1551V12.5742C25.1551 12.0725 24.7485 11.666 24.2469 11.666C23.7453 11.666 23.3387 12.0725 23.3387 12.5742V13.5732H22.6279C20.6201 13.5732 18.9867 11.9398 18.9867 9.93201V8.85755C18.9867 7.97392 19.7055 7.25511 20.5891 7.25511H41.4106C42.2943 7.25511 43.0131 7.97405 43.0131 8.85755V9.93201C43.0131 11.9398 41.3796 13.5732 39.3718 13.5732Z" fill="#CB8734"/>
</svg>
