<svg width="29" height="32" viewBox="0 0 29 32" fill="none" xmlns="http://www.w3.org/2000/svg">
<path d="M22.7466 5.99066L22.3492 6.0057L18.5864 6.14818C18.5864 6.14818 18.5863 6.14819 18.5863 6.14819C18.1823 6.16441 17.8723 6.49719 17.8883 6.89891L22.7466 5.99066ZM22.7466 5.99066L22.4382 5.73951C17.6342 1.82682 10.5432 1.89214 5.8046 6.17849C2.32441 9.32443 0.856514 14.1153 1.95745 18.6764L1.95775 18.6775C2.05373 19.0615 1.81369 19.4544 1.42568 19.5514L1.42567 19.5513L1.42259 19.5522C1.3669 19.5674 1.31583 19.5728 1.2548 19.5728C0.926943 19.5728 0.632519 19.3527 0.552123 19.0204L0.552106 19.0203C-0.678506 13.9441 0.962279 8.61152 4.83357 5.10557L4.83363 5.10552C7.64741 2.55452 11.2938 1.25361 15.0883 1.4459L15.0884 1.44591C18.1527 1.59976 21.0171 2.70221 23.3431 4.60529L23.6006 4.81597L23.588 4.4835L23.452 0.901791L23.452 0.901488C23.4359 0.499654 23.7459 0.166767 24.1501 0.150601L24.1501 0.150598C24.546 0.13455 24.8846 0.445069 24.9009 0.848428L24.9009 0.848322L25.0508 0.842714M22.7466 5.99066L23.4305 4.28998L23.3021 0.907483C23.2826 0.421718 23.6583 0.0201516 24.1441 0.000720998C24.6234 -0.0187096 25.0314 0.356949 25.0508 0.842714M25.0508 0.842714L24.9009 0.848709L25.1146 6.55812M25.0508 0.842714L25.2646 6.55531M25.2646 6.55531H25.1146V6.55812M25.2646 6.55531L25.1147 6.56092L25.1146 6.55812M25.2646 6.55531V6.56179V6.59418V6.65894C25.2646 7.13176 24.8954 7.51389 24.4226 7.53332L18.6452 7.74706H18.6128C18.1465 7.74706 17.7579 7.37788 17.7384 6.90507L24.4167 7.38344M25.1146 6.55812V6.56179V6.56187V6.56194V6.56202V6.56209V6.56217V6.56224V6.56232V6.56239V6.56247V6.56254V6.56262V6.56269V6.56277V6.56284V6.56291V6.56299V6.56306V6.56313V6.56321V6.56328V6.56335V6.56343V6.5635V6.56357V6.56364V6.56372V6.56379V6.56386V6.56393V6.564V6.56408V6.56415V6.56422V6.56429V6.56436V6.56443V6.5645V6.56457V6.56464V6.56471V6.56479V6.56486V6.56493V6.565V6.56506V6.56514V6.5652V6.56527V6.56534V6.56541V6.56548V6.56555V6.56562V6.56569V6.56576V6.56583V6.56589V6.56596V6.56603V6.5661V6.56617V6.56624V6.5663V6.56637V6.56644V6.56651V6.56657V6.56664V6.56671V6.56677V6.56684V6.56691V6.56697V6.56704V6.56711V6.56717V6.56724V6.56731V6.56737V6.56744V6.5675V6.56757V6.56764V6.5677V6.56777V6.56783V6.5679V6.56796V6.56803V6.56809V6.56816V6.56822V6.56829V6.56835V6.56842V6.56848V6.56854V6.56861V6.56867V6.56874V6.5688V6.56886V6.56893V6.56899V6.56906V6.56912V6.56918V6.56925V6.56931V6.56937V6.56943V6.5695V6.56956V6.56962V6.56969V6.56975V6.56981V6.56987V6.56994V6.57V6.57006V6.57012V6.57018V6.57025V6.57031V6.57037V6.57043V6.57049V6.57056V6.57062V6.57068V6.57074V6.5708V6.57086V6.57092V6.57099V6.57105V6.57111V6.57117V6.57123V6.57129V6.57135V6.57141V6.57147V6.57153V6.57159V6.57165V6.57171V6.57177V6.57183V6.57189V6.57195V6.57201V6.57207V6.57213V6.57219V6.57225V6.57231V6.57237V6.57243V6.57249V6.57255V6.57261V6.57267V6.57273V6.57279V6.57285V6.57291V6.57297V6.57303V6.57309V6.57314V6.5732V6.57326V6.57332V6.57338V6.57344V6.5735V6.57356V6.57361V6.57367V6.57373V6.57379V6.57385V6.57391V6.57397V6.57402V6.57408V6.57414V6.5742V6.57426V6.57431V6.57437V6.57443V6.57449V6.57455V6.5746V6.57466V6.57472V6.57478V6.57484V6.57489V6.57495V6.57501V6.57507V6.57512V6.57518V6.57524V6.5753V6.57536V6.57541V6.57547V6.57553V6.57558V6.57564V6.5757V6.57576V6.57581V6.57587V6.57593V6.57599V6.57604V6.5761V6.57616V6.57622V6.57627V6.57633V6.57639V6.57644V6.5765V6.57656V6.57662V6.57667V6.57673V6.57679V6.57684V6.5769V6.57696V6.57701V6.57707V6.57713V6.57719V6.57724V6.5773V6.57736V6.57741V6.57747V6.57753V6.57758V6.57764V6.5777V6.57776V6.57781V6.57787V6.57793V6.57798V6.57804V6.5781V6.57815V6.57821V6.57827V6.57832V6.57838V6.57844V6.5785V6.57855V6.57861V6.57867V6.57872V6.57878V6.57884V6.57889V6.57895V6.57901V6.57907V6.57912V6.57918V6.57924V6.57929V6.57935V6.57941V6.57946V6.57952V6.57958V6.57964V6.57969V6.57975V6.57981V6.57986V6.57992V6.57998V6.58004V6.58009V6.58015V6.58021V6.58027V6.58032V6.58038V6.58044V6.5805V6.58055V6.58061V6.58067V6.58073V6.58078V6.58084V6.5809V6.58096V6.58101V6.58107V6.58113V6.58119V6.58125V6.5813V6.58136V6.58142V6.58148V6.58154V6.58159V6.58165V6.58171V6.58177V6.58183V6.58188V6.58194V6.582V6.58206V6.58212V6.58218V6.58223V6.58229V6.58235V6.58241V6.58247V6.58253V6.58259V6.58265V6.5827V6.58276V6.58282V6.58288V6.58294V6.583V6.58306V6.58312V6.58318V6.58324V6.5833V6.58335V6.58341V6.58347V6.58353V6.58359V6.58365V6.58371V6.58377V6.58383V6.58389V6.58395V6.58401V6.58407V6.58413V6.58419V6.58425V6.58431V6.58437V6.58443V6.58449V6.58456V6.58462V6.58468V6.58474V6.5848V6.58486V6.58492V6.58498V6.58504V6.5851V6.58516V6.58523V6.58529V6.58535V6.58541V6.58547V6.58553V6.5856V6.58566V6.58572V6.58578V6.58584V6.58591V6.58597V6.58603V6.58609V6.58615V6.58622V6.58628V6.58634V6.58641V6.58647V6.58653V6.58659V6.58666V6.58672V6.58678V6.58685V6.58691V6.58697V6.58704V6.5871V6.58717V6.58723V6.58729V6.58736V6.58742V6.58749V6.58755V6.58762V6.58768V6.58774V6.58781V6.58787V6.58794V6.588V6.58807V6.58813V6.5882V6.58827V6.58833V6.5884V6.58846V6.58853V6.58859V6.58866V6.58873V6.58879V6.58886V6.58893V6.58899V6.58906V6.58913V6.58919V6.58926V6.58933V6.58939V6.58946V6.58953V6.5896V6.58966V6.58973V6.5898V6.58987V6.58994V6.59V6.59007V6.59014V6.59021V6.59028V6.59035V6.59042V6.59048V6.59055V6.59062V6.59069V6.59076V6.59083V6.5909V6.59097V6.59104V6.59111V6.59118V6.59125V6.59132V6.59139V6.59146V6.59153V6.59161V6.59168V6.59175V6.59182V6.59189V6.59196V6.59203V6.59211V6.59218V6.59225V6.59232V6.59239V6.59247V6.59254V6.59261V6.59269V6.59276V6.59283V6.59291V6.59298V6.59305V6.59313V6.5932V6.59328V6.59335V6.59342V6.5935V6.59357V6.59365V6.59372V6.5938V6.59387V6.59395V6.59402V6.5941V6.59418V6.65894C25.1146 7.05062 24.8096 7.36715 24.4167 7.38344M24.4167 7.38344L24.417 7.38342L24.4226 7.53309L24.4164 7.38345M24.4167 7.38344L24.4164 7.38345M24.4164 7.38345L18.6432 7.59706H18.6431H18.6431H18.643H18.6429H18.6428H18.6428H18.6427H18.6426H18.6426H18.6425H18.6424H18.6423H18.6423H18.6422H18.6421H18.6421H18.642H18.6419H18.6419H18.6418H18.6417H18.6416H18.6416H18.6415H18.6414H18.6414H18.6413H18.6412H18.6412H18.6411H18.641H18.641H18.6409H18.6408H18.6408H18.6407H18.6406H18.6406H18.6405H18.6404H18.6403H18.6403H18.6402H18.6401H18.6401H18.64H18.6399H18.6399H18.6398H18.6397H18.6397H18.6396H18.6395H18.6395H18.6394H18.6394H18.6393H18.6392H18.6392H18.6391H18.639H18.639H18.6389H18.6388H18.6388H18.6387H18.6386H18.6386H18.6385H18.6384H18.6384H18.6383H18.6383H18.6382H18.6381H18.6381H18.638H18.6379H18.6379H18.6378H18.6377H18.6377H18.6376H18.6376H18.6375H18.6374H18.6374H18.6373H18.6372H18.6372H18.6371H18.6371H18.637H18.6369H18.6369H18.6368H18.6367H18.6367H18.6366H18.6366H18.6365H18.6364H18.6364H18.6363H18.6362H18.6362H18.6361H18.6361H18.636H18.6359H18.6359H18.6358H18.6358H18.6357H18.6356H18.6356H18.6355H18.6355H18.6354H18.6353H18.6353H18.6352H18.6352H18.6351H18.635H18.635H18.6349H18.6349H18.6348H18.6347H18.6347H18.6346H18.6346H18.6345H18.6344H18.6344H18.6343H18.6343H18.6342H18.6341H18.6341H18.634H18.634H18.6339H18.6338H18.6338H18.6337H18.6337H18.6336H18.6336H18.6335H18.6334H18.6334H18.6333H18.6333H18.6332H18.6331H18.6331H18.633H18.633H18.6329H18.6328H18.6328H18.6327H18.6327H18.6326H18.6326H18.6325H18.6324H18.6324H18.6323H18.6323H18.6322H18.6322H18.6321H18.632H18.632H18.6319H18.6319H18.6318H18.6317H18.6317H18.6316H18.6316H18.6315H18.6315H18.6314H18.6313H18.6313H18.6312H18.6312H18.6311H18.6311H18.631H18.6309H18.6309H18.6308H18.6308H18.6307H18.6307H18.6306H18.6305H18.6305H18.6304H18.6304H18.6303H18.6303H18.6302H18.6301H18.6301H18.63H18.63H18.6299H18.6299H18.6298H18.6297H18.6297H18.6296H18.6296H18.6295H18.6295H18.6294H18.6293H18.6293H18.6292H18.6292H18.6291H18.6291H18.629H18.6289H18.6289H18.6288H18.6288H18.6287H18.6287H18.6286H18.6285H18.6285H18.6284H18.6284H18.6283H18.6283H18.6282H18.6282H18.6281H18.628H18.628H18.6279H18.6279H18.6278H18.6278H18.6277H18.6276H18.6276H18.6275H18.6275H18.6274H18.6274H18.6273H18.6272H18.6272H18.6271H18.6271H18.627H18.627H18.6269H18.6268H18.6268H18.6267H18.6267H18.6266H18.6265H18.6265H18.6264H18.6264H18.6263H18.6263H18.6262H18.6261H18.6261H18.626H18.626H18.6259H18.6259H18.6258H18.6257H18.6257H18.6256H18.6256H18.6255H18.6255H18.6254H18.6253H18.6253H18.6252H18.6252H18.6251H18.625H18.625H18.6249H18.6249H18.6248H18.6248H18.6247H18.6246H18.6246H18.6245H18.6245H18.6244H18.6243H18.6243H18.6242H18.6242H18.6241H18.624H18.624H18.6239H18.6239H18.6238H18.6238H18.6237H18.6236H18.6236H18.6235H18.6235H18.6234H18.6233H18.6233H18.6232H18.6232H18.6231H18.623H18.623H18.6229H18.6229H18.6228H18.6227H18.6227H18.6226H18.6226H18.6225H18.6224H18.6224H18.6223H18.6223H18.6222H18.6221H18.6221H18.622H18.6219H18.6219H18.6218H18.6218H18.6217H18.6216H18.6216H18.6215H18.6215H18.6214H18.6213H18.6213H18.6212H18.6211H18.6211H18.621H18.621H18.6209H18.6208H18.6208H18.6207H18.6206H18.6206H18.6205H18.6205H18.6204H18.6203H18.6203H18.6202H18.6201H18.6201H18.62H18.6199H18.6199H18.6198H18.6198H18.6197H18.6196H18.6196H18.6195H18.6194H18.6194H18.6193H18.6192H18.6192H18.6191H18.619H18.619H18.6189H18.6189H18.6188H18.6187H18.6187H18.6186H18.6185H18.6185H18.6184H18.6183H18.6183H18.6182H18.6181H18.6181H18.618H18.6179H18.6179H18.6178H18.6177H18.6177H18.6176H18.6175H18.6175H18.6174H18.6173H18.6173H18.6172H18.6171H18.6171H18.617H18.6169H18.6168H18.6168H18.6167H18.6166H18.6166H18.6165H18.6164H18.6164H18.6163H18.6162H18.6162H18.6161H18.616H18.6159H18.6159H18.6158H18.6157H18.6157H18.6156H18.6155H18.6155H18.6154H18.6153H18.6152H18.6152H18.6151H18.615H18.615H18.6149H18.6148H18.6147H18.6147H18.6146H18.6145H18.6144H18.6144H18.6143H18.6142H18.6142H18.6141H18.614H18.6139H18.6139H18.6138H18.6137H18.6136H18.6136H18.6135H18.6134H18.6133H18.6133H18.6132H18.6131H18.613H18.613H18.6129H18.6128C18.2269 7.59706 17.9045 7.29131 17.8883 6.89907L24.4164 7.38345Z" fill="#2B2A28" stroke="#FFFBF7" stroke-width="0.3"/>
<path d="M27.0424 13.0424L27.0421 13.0414C26.9461 12.6575 27.1862 12.2646 27.5742 12.1676C27.958 12.0716 28.3508 12.3115 28.4479 12.6993C29.6782 17.7818 28.0375 23.1074 24.1665 26.6132C21.5254 28.9979 18.1673 30.2923 14.6359 30.2923C14.3989 30.2923 14.1554 30.2859 13.9119 30.273L13.9116 30.273C10.8666 30.1192 8.01486 29.0232 5.68858 27.1391L5.41347 26.9163L5.44476 27.2689L5.75564 30.7729L5.75571 30.7736C5.79325 31.1758 5.49876 31.5247 5.10075 31.5624L5.08948 31.5635L5.0785 31.5662C5.07336 31.5675 5.06585 31.5682 5.03716 31.5682C4.66724 31.5682 4.35084 31.2836 4.31871 30.9087L4.31865 30.9081L3.8005 25.1502L3.80046 25.1497C3.76293 24.7475 4.05725 24.3987 4.45509 24.3609C4.4552 24.3609 4.4553 24.3609 4.45541 24.3609L10.2127 23.8428L10.2132 23.8427C10.6163 23.8051 10.9643 24.094 11.002 24.4975C11.0395 24.8996 10.7452 25.2485 10.3473 25.2863C10.3472 25.2863 10.3471 25.2863 10.347 25.2863L6.53928 25.6295L6.17794 25.6621L6.45678 25.8942C8.80344 27.8476 11.7134 28.837 14.6294 28.837C17.6833 28.837 20.7507 27.7491 23.1952 25.5405L23.1953 25.5404C26.6753 22.3946 28.1499 17.6037 27.0424 13.0424Z" fill="#2B2A28" stroke="#FFFBF7" stroke-width="0.3"/>
</svg>
