<svg width="62" height="60" viewBox="0 0 62 60" fill="none" xmlns="http://www.w3.org/2000/svg">
<path d="M58.5 3H58V1C58 0.734784 57.8946 0.48043 57.7071 0.292893C57.5196 0.105357 57.2652 0 57 0H53C52.7348 0 52.4804 0.105357 52.2929 0.292893C52.1054 0.48043 52 0.734784 52 1V3H46V1C46 0.734784 45.8946 0.48043 45.7071 0.292893C45.5196 0.105357 45.2652 0 45 0H41C40.7348 0 40.4804 0.105357 40.2929 0.292893C40.1054 0.48043 40 0.734784 40 1V3H34V1C34 0.734784 33.8946 0.48043 33.7071 0.292893C33.5196 0.105357 33.2652 0 33 0H29C28.7348 0 28.4804 0.105357 28.2929 0.292893C28.1054 0.48043 28 0.734784 28 1V3H22V1C22 0.734784 21.8946 0.48043 21.7071 0.292893C21.5196 0.105357 21.2652 0 21 0H17C16.7348 0 16.4804 0.105357 16.2929 0.292893C16.1054 0.48043 16 0.734784 16 1V3H10V1C10 0.734784 9.89464 0.48043 9.70711 0.292893C9.51957 0.105357 9.26522 0 9 0H5C4.73478 0 4.48043 0.105357 4.29289 0.292893C4.10536 0.48043 4 0.734784 4 1V3H3.5C2.57206 3.00103 1.68241 3.3701 1.02626 4.02626C0.370104 4.68241 0.00102566 5.57206 0 6.5V50.5C0.00102566 51.4279 0.370104 52.3176 1.02626 52.9737C1.68241 53.6299 2.57206 53.999 3.5 54H16.3188C20.2378 57.8456 25.5093 60 31 60C36.4907 60 41.7622 57.8456 45.6813 54H58.5C59.4279 53.999 60.3176 53.6299 60.9737 52.9737C61.6299 52.3176 61.999 51.4279 62 50.5V6.5C61.999 5.57206 61.6299 4.68241 60.9737 4.02626C60.3176 3.3701 59.4279 3.00103 58.5 3ZM54 2H56V6H54V2ZM42 2H44V6H42V2ZM30 2H32V6H30V2ZM18 2H20V6H18V2ZM6 2H8V6H6V2ZM31 58C20.5238 58 12 49.4762 12 39C12 28.5238 20.5238 20 31 20C41.4762 20 50 28.5238 50 39C50 49.4762 41.4762 58 31 58ZM60 50.5C59.9997 50.8977 59.8415 51.2791 59.5603 51.5603C59.2791 51.8415 58.8977 51.9997 58.5 52H47.4813C50.4118 48.301 52.0044 43.7192 52 39C52 27.42 42.58 18 31 18C19.42 18 10 27.42 10 39C9.99562 43.7192 11.5882 48.301 14.5188 52H3.5C3.10228 51.9997 2.72094 51.8415 2.43971 51.5603C2.15847 51.2791 2.00033 50.8977 2 50.5V11H60V50.5ZM60 9H2V6.5C2.00033 6.10228 2.15847 5.72094 2.43971 5.43971C2.72094 5.15847 3.10228 5.00033 3.5 5H4V7C4 7.26522 4.10536 7.51957 4.29289 7.70711C4.48043 7.89464 4.73478 8 5 8H9C9.26522 8 9.51957 7.89464 9.70711 7.70711C9.89464 7.51957 10 7.26522 10 7V5H16V7C16 7.26522 16.1054 7.51957 16.2929 7.70711C16.4804 7.89464 16.7348 8 17 8H21C21.2652 8 21.5196 7.89464 21.7071 7.70711C21.8946 7.51957 22 7.26522 22 7V5H28V7C28 7.26522 28.1054 7.51957 28.2929 7.70711C28.4804 7.89464 28.7348 8 29 8H33C33.2652 8 33.5196 7.89464 33.7071 7.70711C33.8946 7.51957 34 7.26522 34 7V5H40V7C40 7.26522 40.1054 7.51957 40.2929 7.70711C40.4804 7.89464 40.7348 8 41 8H45C45.2652 8 45.5196 7.89464 45.7071 7.70711C45.8946 7.51957 46 7.26522 46 7V5H52V7C52 7.26522 52.1054 7.51957 52.2929 7.70711C52.4804 7.89464 52.7348 8 53 8H57C57.2652 8 57.5196 7.89464 57.7071 7.70711C57.8946 7.51957 58 7.26522 58 7V5H58.5C58.8977 5.00033 59.2791 5.15847 59.5603 5.43971C59.8415 5.72094 59.9997 6.10228 60 6.5V9Z" fill="#CB8734"/>
<path d="M31 22C21.6263 22 14 29.6263 14 39C14 48.3737 21.6263 56 31 56C40.3737 56 48 48.3737 48 39C48 29.6263 40.3737 22 31 22ZM31 54C28.0333 54 25.1332 53.1203 22.6664 51.472C20.1997 49.8238 18.2771 47.4811 17.1418 44.7402C16.0065 41.9994 15.7094 38.9834 16.2882 36.0736C16.867 33.1639 18.2956 30.4912 20.3934 28.3934C22.4912 26.2956 25.1639 24.867 28.0736 24.2882C30.9834 23.7094 33.9994 24.0065 36.7402 25.1418C39.4811 26.2771 41.8238 28.1997 43.472 30.6664C45.1203 33.1332 46 36.0333 46 39C45.9956 42.9769 44.4138 46.7896 41.6017 49.6017C38.7896 52.4138 34.9769 53.9956 31 54V54Z" fill="#CB8734"/>
<path d="M32 38.5858V29C32 28.7348 31.8946 28.4804 31.7071 28.2929C31.5196 28.1054 31.2652 28 31 28C30.7348 28 30.4804 28.1054 30.2929 28.2929C30.1054 28.4804 30 28.7348 30 29V39C30 39.1313 30.0259 39.2614 30.0761 39.3827C30.1264 39.504 30.2 39.6143 30.2929 39.7071L34.2929 43.7071C34.4804 43.8947 34.7348 44 35 44C35.2652 44 35.5196 43.8947 35.7071 43.7071C35.8947 43.5196 36 43.2652 36 43C36 42.7348 35.8947 42.4804 35.7071 42.2929L32 38.5858Z" fill="#CB8734"/>
</svg>
